<svg width="69" height="83" viewBox="0 0 69 83" fill="none" xmlns="http://www.w3.org/2000/svg">
<circle cx="34.2132" cy="34.3802" r="33.8343" fill="#0A182E"/>
<path d="M33.7324 2.57991L33.0795 2.64047C33.064 2.6419 33.0527 2.65559 33.0541 2.67105L33.1108 3.28247C33.1123 3.29793 33.126 3.30929 33.1414 3.30786L33.7943 3.24729C33.8097 3.24586 33.8211 3.23217 33.8197 3.21672L33.7629 2.60529C33.7615 2.58984 33.7478 2.57847 33.7324 2.57991Z" fill="#E8E6E7"/>
<path d="M27.894 4.06304L26.9927 4.10571C26.9615 4.10675 26.9334 4.08489 26.9261 4.05471L26.7533 3.31265C26.7439 3.2731 26.7741 3.23459 26.8147 3.23251L27.7295 3.19608C27.7618 3.19504 27.7899 3.2169 27.7961 3.24812L27.9543 3.9829C27.9637 4.02245 27.9346 4.06095 27.894 4.06304Z" fill="#E8E6E7"/>
<path d="M23.6896 4.62743L23.4927 4.66702C23.4176 4.68265 23.3718 4.65243 23.3551 4.57845L23.2884 4.294C23.2718 4.22419 23.2989 4.19397 23.3708 4.20439C23.452 4.21689 23.5323 4.21377 23.6115 4.19501C23.7063 4.17313 23.7594 4.21064 23.7698 4.30754L23.7896 4.49093C23.7969 4.55553 23.7532 4.61492 23.6896 4.62743Z" fill="#74787D"/>
<path d="M33.4276 5.43666L33.4349 5.72703C33.4359 5.77595 33.3818 5.80717 33.3412 5.78011L33.1185 5.63336C33.0539 5.59069 32.9696 5.59798 32.9134 5.65002L32.5596 5.97994C32.5221 6.01428 32.5034 6.00596 32.5044 5.95496L32.5065 5.55947C32.5065 5.52512 32.4951 5.49598 32.4722 5.471L32.2702 5.25453C32.2265 5.20873 32.2369 5.1338 32.2911 5.10049C32.6304 4.89338 32.9457 4.65921 33.2361 4.40006C33.2829 4.35843 33.3568 4.38965 33.361 4.4521C33.3797 4.73831 33.4879 4.9527 33.6846 5.09529C33.8085 5.18375 33.7971 5.25036 33.6513 5.29303L33.4983 5.33883C33.4557 5.35132 33.4265 5.39191 33.4276 5.43666Z" fill="#E8E6E7"/>
<path d="M40.0166 4.8874L39.4962 5.82409C39.4785 5.85635 39.4317 5.85219 39.4192 5.81889L39.0248 4.79061C39.0133 4.76147 39.0373 4.73025 39.0685 4.73337L39.9833 4.82392C40.0135 4.82704 40.0312 4.86034 40.0166 4.8874Z" fill="#E8E6E7"/>
<path d="M36.2814 4.95893L36.4989 5.52199C36.5145 5.56362 36.4833 5.60837 36.4386 5.60837L35.8245 5.60108C35.7735 5.60108 35.7433 5.5428 35.7735 5.50117L36.17 4.94436C36.1992 4.90377 36.2627 4.91106 36.2814 4.95893Z" fill="#74787D"/>
<path d="M29.37 5.05488L29.8399 5.05176C29.8712 5.05176 29.8983 5.07677 29.9014 5.10802L29.9347 5.49459C29.9379 5.5321 29.9066 5.5644 29.8691 5.56128L29.3835 5.52898C29.3523 5.52794 29.3273 5.50189 29.3262 5.47063L29.3096 5.11844C29.3075 5.08406 29.3356 5.05488 29.37 5.05488Z" fill="#74787D"/>
<path d="M47.9743 5.75142L47.4138 5.81528C47.3847 5.8186 47.3638 5.8449 47.3671 5.87403L47.4307 6.43243C47.434 6.46155 47.4603 6.48247 47.4895 6.47916L48.0499 6.4153C48.0791 6.41198 48.1 6.38568 48.0967 6.35655L48.033 5.79815C48.0297 5.76903 48.0034 5.7481 47.9743 5.75142Z" fill="#E8E6E7"/>
<path d="M24.1306 6.05399L23.7705 6.90846C23.756 6.94176 23.7102 6.94593 23.6914 6.91471L23.2075 6.12373C23.1908 6.09458 23.2096 6.05816 23.2429 6.05503L24.0859 5.99155C24.1192 5.98947 24.1431 6.02277 24.1306 6.05399Z" fill="#74787D"/>
<path d="M21.9045 6.66371C22.0253 6.40977 22.1678 6.1527 22.4093 5.9997C22.4374 5.98201 22.4728 6.00387 22.4697 6.03717C22.4145 6.60022 22.4051 7.17369 22.4416 7.75547C22.4447 7.80647 22.4197 7.83145 22.3687 7.82833C22.0284 7.80543 21.6953 7.80231 21.3685 7.81896C21.3238 7.82104 21.3009 7.79919 21.2998 7.75339C21.2967 7.42243 21.2863 7.08626 21.2665 6.74489C21.2624 6.66683 21.2707 6.58982 21.2915 6.51384C21.3051 6.46597 21.3592 6.44307 21.4029 6.46805L21.7963 6.69702C21.8442 6.72512 21.8806 6.71367 21.9045 6.66371Z" fill="#E8E6E7"/>
<path d="M33.8781 7.35464C33.9124 7.29948 33.9343 7.24224 33.9447 7.18084C33.9509 7.14441 33.9655 7.1111 33.9884 7.08092L34.413 6.52932C34.4796 6.44293 34.5098 6.45334 34.5046 6.56262C34.4786 7.11319 34.5504 7.72307 34.7211 8.39228C34.7346 8.44432 34.7003 8.49636 34.6472 8.50469L33.6168 8.67537C33.5742 8.68266 33.5513 8.66496 33.5461 8.62229C33.493 8.16227 33.416 7.75117 33.0652 7.40876C33.0246 7.36921 33.0434 7.30156 33.0975 7.28803C33.3088 7.23704 33.6345 7.10278 33.7813 7.3536C33.8031 7.39003 33.8562 7.39107 33.8781 7.35464Z" fill="#E8E6E7"/>
<path d="M18.7382 6.73764L18.2282 7.768C18.2095 7.80651 18.1532 7.80443 18.1376 7.76488L17.6964 6.70226C17.6828 6.66895 17.7078 6.63253 17.7442 6.63357L18.6955 6.66479C18.7319 6.66687 18.7548 6.70434 18.7382 6.73764Z" fill="#E8E6E7"/>
<path d="M43.9788 6.92904L44.0277 7.59201C44.0298 7.61178 44.0152 7.6274 43.9954 7.62844L43.3679 7.64197C43.3502 7.64301 43.3346 7.62844 43.3346 7.61074L43.3054 7.01543C43.3054 6.99877 43.3179 6.98316 43.3346 6.98108L43.9403 6.89886C43.9601 6.89574 43.9767 6.91031 43.9788 6.92904Z" fill="#E8E6E7"/>
<path d="M47.1251 8.86836L46.279 8.55093C46.2446 8.53844 46.228 8.49993 46.2415 8.46663L46.5267 7.76515C46.5402 7.73185 46.5787 7.71624 46.612 7.73081L47.3832 8.05657C47.4134 8.0701 47.429 8.1034 47.4197 8.13462L47.2094 8.82673C47.199 8.86212 47.1605 8.88085 47.1251 8.86836Z" fill="#E8E6E7"/>
<path d="M38.287 9.46229C38.644 9.16776 38.6336 8.93359 38.541 8.50791C38.5295 8.45484 38.5493 8.43714 38.6003 8.45379C38.9979 8.58285 39.3777 8.66923 39.7389 8.71295C39.8398 8.72543 39.8503 8.7629 39.7701 8.82639C39.4485 9.07929 39.2934 9.38528 39.307 9.74434C39.3091 9.80366 39.283 9.82136 39.2289 9.79742C38.9635 9.6819 38.6659 9.61737 38.3339 9.60176C38.1975 9.59551 38.1819 9.54868 38.287 9.46229Z" fill="#E8E6E7"/>
<path d="M51.3298 9.92848L50.8146 9.19579C50.7896 9.16144 50.8105 9.11461 50.8521 9.10836L51.7378 8.97619C51.7815 8.96994 51.8148 9.01365 51.7971 9.05424L51.4266 9.91808C51.4099 9.95867 51.3548 9.96387 51.3298 9.92848Z" fill="#E8E6E7"/>
<path d="M28.2893 9.75984L28.306 9.27172C28.306 9.2457 28.3237 9.22177 28.3487 9.21344L28.8326 9.04171C28.867 9.02922 28.9055 9.04796 28.9159 9.08335L29.1043 9.70468C29.1167 9.74423 29.0876 9.78482 29.046 9.7869L28.358 9.82645C28.3195 9.82853 28.2883 9.79835 28.2893 9.75984Z" fill="#E8E6E7"/>
<path d="M15.4735 10.3814L15.1123 9.26262C15.105 9.23973 15.1217 9.21579 15.1467 9.21683L16.3217 9.23556C16.3508 9.2366 16.3664 9.26887 16.3498 9.29176L15.5359 10.3908C15.5193 10.4147 15.4828 10.4085 15.4735 10.3814Z" fill="#52A7E7"/>
<path d="M49.2544 9.87673L48.8943 10.4356C48.8558 10.4949 48.7674 10.4856 48.7413 10.4211L48.4947 9.80284C48.4707 9.74352 48.5186 9.67899 48.5831 9.68523L49.1899 9.74352C49.2544 9.74976 49.2898 9.82157 49.2544 9.87673Z" fill="#74787D"/>
<path d="M46.1572 10.5114C46.2529 10.5666 46.2727 10.6425 46.2165 10.7404C46.0698 10.9922 45.9698 11.2399 45.9147 11.4824C45.898 11.5574 45.8283 11.6084 45.7523 11.6021L44.7116 11.5209C44.6845 11.5178 44.6668 11.4907 44.6772 11.4658C44.8333 11.0786 44.8614 10.681 44.7615 10.2731C44.7522 10.2356 44.7917 10.2033 44.8271 10.22C44.953 10.2783 45.0769 10.3376 45.1986 10.3969C45.5254 10.5582 45.7981 10.1284 45.9761 9.91399C46.0146 9.8682 46.0365 9.87548 46.0427 9.93481L46.0895 10.4084C46.0947 10.4541 46.1166 10.4885 46.1572 10.5114Z" fill="#E8E6E7"/>
<path d="M35.508 10.597L34.8252 10.5928C34.7586 10.5928 34.7253 10.5116 34.7732 10.4648L35.2582 9.98394C35.2957 9.94648 35.3602 9.95897 35.38 10.0089L35.5777 10.4939C35.5985 10.5428 35.5621 10.597 35.508 10.597Z" fill="#74787D"/>
<path d="M30.5654 10.0285L30.1449 11.2628C30.1356 11.2899 30.0981 11.2941 30.0846 11.268L29.4861 10.2002C29.4747 10.1794 29.4872 10.1544 29.5101 10.1513L30.5279 9.98583C30.5529 9.98166 30.5737 10.0056 30.5654 10.0285Z" fill="#E8E6E7"/>
<path d="M24.2909 10.7634L24.6187 10.2201C24.651 10.166 24.7249 10.1524 24.7748 10.1909C24.9778 10.3481 25.087 10.576 25.1016 10.8758C25.1058 10.9611 25.0267 11.0277 24.9434 11.009L24.3356 10.8695C24.2721 10.8549 24.2565 10.8196 24.2909 10.7634Z" fill="#E8E6E7"/>
<path d="M20.3963 11.9988C20.0747 11.8333 19.7344 11.7126 19.4378 11.5075C19.4034 11.4836 19.4014 11.4336 19.4326 11.4066C19.7282 11.1474 20.0092 10.8248 20.2756 10.4387C20.2954 10.4106 20.3401 10.422 20.3433 10.4564L20.4848 11.9384C20.4921 12.0123 20.4619 12.0331 20.3963 11.9988Z" fill="#E8E6E7"/>
<path d="M41.5456 10.8383L41.1075 11.9342C41.0825 11.9956 40.9972 11.9977 40.9701 11.9384L40.509 10.9476C40.4872 10.9018 40.5174 10.8477 40.5684 10.8414L41.4676 10.7363C41.5238 10.7301 41.5665 10.7863 41.5456 10.8383Z" fill="#E8E6E7"/>
<path d="M54.885 11.5711C54.655 11.8948 54.9329 12.1311 55.2534 12.1144C55.2774 12.1134 55.2888 12.1248 55.2899 12.1488C55.2909 12.1644 55.2836 12.1748 55.2691 12.18C54.834 12.3548 54.5863 12.818 54.4375 13.2364C54.4292 13.2613 54.3969 13.2665 54.3802 13.2457C54.1992 13.0209 53.992 12.8377 53.7589 12.6972C53.7235 12.6764 53.7152 12.6473 53.735 12.6109L54.2408 11.6596C54.2668 11.6096 54.3178 11.5774 54.374 11.5743C54.528 11.5649 54.6748 11.5337 54.8153 11.4806C54.9381 11.4338 54.961 11.4639 54.885 11.5711Z" fill="#E8E6E7"/>
<path d="M34.7578 13.5672L32.6284 13.5651C32.5992 13.5651 32.5742 13.5411 32.5732 13.512L32.5128 11.725C32.5118 11.6948 32.5368 11.6688 32.568 11.6688L34.8213 11.6553C34.8525 11.6553 34.8775 11.6813 34.8764 11.7125L34.8129 13.5141C34.8119 13.5432 34.7869 13.5672 34.7578 13.5672Z" fill="#E8E6E7"/>
<path d="M25.8311 12.5733L25.3617 11.9946C25.32 11.9436 25.3492 11.8666 25.4137 11.8552L26.1755 11.723C26.2349 11.7126 26.2869 11.7657 26.2744 11.825L26.1943 12.2267C26.1922 12.2382 26.188 12.2496 26.1807 12.259L25.9695 12.5671C25.9362 12.6149 25.8675 12.618 25.8311 12.5733Z" fill="#E8E6E7"/>
<path d="M30.0629 13.8566L28.0011 14.3302C27.9636 14.3385 27.9262 14.3156 27.9158 14.2781L27.4724 12.5671C27.462 12.5276 27.4859 12.488 27.5255 12.4787L29.6955 11.977C29.735 11.9676 29.7746 11.9937 29.7829 12.0332L30.117 13.7734C30.1243 13.8108 30.1003 13.8483 30.0629 13.8566Z" fill="#E8E6E7"/>
<path d="M37.6477 12.0018L39.8531 12.5346C39.8864 12.543 39.9072 12.5773 39.8979 12.6106L39.4347 14.3091C39.4264 14.3414 39.3941 14.3601 39.3619 14.3529L37.2918 13.8731C37.2595 13.8658 37.2398 13.8346 37.245 13.8013L37.5738 12.0496C37.5801 12.0153 37.6144 11.9934 37.6477 12.0018Z" fill="#E8E6E7"/>
<path d="M43.3847 12.4605L43.4242 12.1489C43.4315 12.0937 43.4732 12.0489 43.5274 12.0374C43.6827 12.003 43.8077 12.0333 43.9025 12.127C43.9275 12.151 43.94 12.1812 43.94 12.2156V12.5355C43.9411 12.5605 43.9286 12.5709 43.9025 12.5667C43.766 12.5449 43.6233 12.5407 43.4743 12.5532C43.4065 12.5595 43.3763 12.5282 43.3847 12.4605Z" fill="#74787D"/>
<path d="M14.0706 12.8688C13.5367 12.9895 13.1068 13.053 13.0194 13.6951C13.0142 13.7284 12.9757 13.7461 12.9486 13.7264L11.9464 13.0301C11.8204 12.9427 11.834 12.8979 11.987 12.8948C12.423 12.8854 12.7467 12.7127 12.957 12.3744C13.0111 12.288 13.0319 12.186 13.0798 12.0996C13.1047 12.0528 13.1318 12.0518 13.1599 12.0965C13.3878 12.4587 13.6949 12.6523 14.0758 12.8074C14.1403 12.8334 14.1382 12.8532 14.0706 12.8688Z" fill="#E8E6E7"/>
<path d="M22.2766 12.9341L21.9232 12.5869C21.8884 12.5527 21.8323 12.5532 21.7981 12.588L21.4436 12.9488C21.4093 12.9836 21.4098 13.0396 21.4447 13.0739L21.798 13.4211C21.8329 13.4554 21.8889 13.4549 21.9231 13.42L22.2776 13.0592C22.3119 13.0244 22.3114 12.9684 22.2766 12.9341Z" fill="#E8E6E7"/>
<path d="M58.2778 12.8479L58.3611 13.8637C58.3642 13.9022 58.333 13.9344 58.2944 13.9324L57.2183 13.8657C57.1631 13.8616 57.1382 13.7939 57.1787 13.7565L58.1706 12.8062C58.2091 12.7698 58.2726 12.7938 58.2778 12.8479Z" fill="#52A7E7"/>
<path d="M9.50885 13.2446C9.56193 13.7327 9.78049 13.9815 10.1656 13.9919C10.2853 13.995 10.3009 14.0366 10.2103 14.1157C9.9366 14.3582 9.73053 14.6913 9.59211 15.1159C9.57546 15.1648 9.51301 15.1752 9.48075 15.1357L8.77719 14.2479C8.75117 14.2146 8.75325 14.1823 8.78136 14.1522C9.04155 13.8784 9.26219 13.5714 9.44328 13.2311C9.45993 13.2009 9.50469 13.2103 9.50885 13.2446Z" fill="#E8E6E7"/>
<path d="M50.7876 14.2821C50.517 14.2103 50.2391 14.0126 50.0465 13.8211C50.0153 13.7899 50.0205 13.7378 50.058 13.7139L50.697 13.2934C50.7397 13.2664 50.7959 13.2934 50.8011 13.3434L50.8843 14.1999C50.8916 14.2738 50.8594 14.3009 50.7876 14.2821Z" fill="#E8E6E7"/>
<path d="M25.6344 15.2189L23.6893 16.167C23.6684 16.1764 23.6435 16.1691 23.632 16.1483L22.7723 14.5996C22.7609 14.5778 22.7692 14.5507 22.7911 14.5393L24.8549 13.4912C24.8768 13.4798 24.9038 13.4891 24.9142 13.512L25.6553 15.1616C25.6657 15.1835 25.6563 15.2085 25.6344 15.2189Z" fill="#E8E6E7"/>
<path d="M43.5459 16.1253L41.7277 15.2521C41.6933 15.2365 41.6787 15.1959 41.6944 15.1605L42.4125 13.565C42.4291 13.5297 42.4718 13.514 42.5072 13.5317L44.4701 14.5007C44.5065 14.5194 44.52 14.5631 44.4992 14.5985L43.6364 16.0972C43.6187 16.1295 43.5792 16.1409 43.5459 16.1253Z" fill="#E8E6E7"/>
<path d="M48.1866 14.3393L48.0461 14.5391C48.0242 14.5703 47.9836 14.5818 47.9493 14.5661L47.3758 14.3174C47.329 14.2966 47.3134 14.2373 47.3456 14.1967L47.7172 13.7231C47.7505 13.6805 47.816 13.6836 47.8452 13.7283L48.1886 14.2508C48.2063 14.2779 48.2053 14.3132 48.1866 14.3393Z" fill="#E8E6E7"/>
<path d="M17.0273 14.0594C17.0991 14.0968 17.1054 14.1437 17.046 14.1999L16.4705 14.7421C16.4122 14.7973 16.3571 14.7942 16.304 14.7348C16.2717 14.6984 16.2551 14.6547 16.253 14.6027C16.2374 14.2894 16.2322 14.0053 16.2394 13.7492C16.2405 13.7055 16.2873 13.6785 16.3258 13.6982L17.0273 14.0594Z" fill="#E8E6E7"/>
<path d="M15.6109 16.0004C15.6338 16.0451 15.6182 16.1003 15.5745 16.1263C15.1926 16.348 14.7908 16.324 14.4432 16.603C14.3984 16.6383 14.3776 16.6279 14.3797 16.5707C14.3922 16.1971 14.2736 15.9046 14.0238 15.6923C13.9655 15.6434 13.9426 15.5643 13.9644 15.4914L14.1164 14.9908C14.1258 14.9596 14.1664 14.9523 14.1861 14.9783L14.3173 15.1584C14.3412 15.1917 14.3797 15.2115 14.4213 15.2125C14.5285 15.2135 14.618 15.1667 14.6899 15.071C14.872 14.8295 15.0281 14.587 15.1592 14.3424C15.1925 14.281 15.2154 14.2852 15.229 14.3528C15.2696 14.5537 15.2342 14.7775 15.2592 14.9825C15.307 15.3759 15.433 15.6527 15.6109 16.0004Z" fill="#52A7E7"/>
<path d="M60.0753 15.3426L59.6018 16.2595C59.5935 16.2751 59.5768 16.2834 59.5591 16.2803C59.2771 16.2262 59.0169 16.2158 58.7786 16.248C58.7119 16.2574 58.6557 16.197 58.6703 16.1315C58.7296 15.8578 58.7723 15.6205 58.6131 15.3603C58.535 15.2312 58.457 15.1022 58.381 14.9731C58.3477 14.9159 58.3622 14.8982 58.4257 14.9179C58.9763 15.0938 59.5206 15.2229 60.0566 15.3051C60.0805 15.3093 60.0868 15.3218 60.0753 15.3426Z" fill="#52A7E7"/>
<path d="M22.23 18.7876C25.3023 16.4574 28.9138 15.1783 32.7865 14.9535C32.8281 14.9514 32.8645 14.9836 32.8666 15.0263L32.9561 16.9309C32.9582 16.9673 32.929 16.9986 32.8926 17.0006C29.4466 17.2078 26.265 18.3797 23.4373 20.4019C23.4061 20.4248 23.3623 20.4175 23.3395 20.3873L22.2165 18.8834C22.1936 18.8532 22.1998 18.8105 22.23 18.7876Z" fill="#909193"/>
<path d="M35.0481 14.9689L37.2483 15.2436C37.2878 15.2488 37.3149 15.2863 37.3086 15.3248L36.9777 17.192C36.9714 17.2284 36.9371 17.2534 36.9006 17.2492L34.8514 16.988C34.815 16.9838 34.7879 16.9495 34.791 16.912L34.97 15.0313C34.9742 14.9918 35.0096 14.9637 35.0481 14.9689Z" fill="#909193"/>
<path d="M18.0014 15.4102C18.0337 15.3915 18.0524 15.4009 18.0555 15.4383L18.118 16.0566C18.1211 16.0951 18.1044 16.118 18.068 16.1273L17.6049 16.2408C17.5507 16.2543 17.5237 16.2324 17.5237 16.1773C17.5258 15.9847 17.4852 15.8047 17.4009 15.6361C17.3832 15.5997 17.3946 15.5799 17.4352 15.5778C17.634 15.5684 17.8234 15.5122 18.0014 15.4102Z" fill="#E8E6E7"/>
<path d="M57.7201 16.0713L57.8294 15.8746C57.9345 15.6841 57.9887 15.6977 57.9918 15.9152L57.997 16.2919C57.998 16.3284 58.0136 16.3565 58.0438 16.3762C58.1063 16.4158 58.1697 16.4522 58.2353 16.4845C58.2613 16.498 58.279 16.5178 58.2894 16.5438C58.2978 16.5636 58.2988 16.5833 58.2936 16.6042C58.2832 16.6458 58.2561 16.6645 58.2135 16.6593C58.0667 16.6437 57.9335 16.6645 57.8149 16.7218C57.7805 16.7384 57.7555 16.7634 57.7389 16.7977C57.6868 16.9029 57.6181 16.9924 57.5318 17.0663C57.4912 17.1016 57.4266 17.0798 57.4162 17.0267C57.3465 16.6905 57.3059 16.346 57.2965 15.9953C57.2955 15.9401 57.3163 15.9287 57.3611 15.961L57.5651 16.1056C57.6171 16.1431 57.6889 16.1264 57.7201 16.0713Z" fill="#E8E6E7"/>
<path d="M39.3548 15.7829L41.3125 16.4635C41.3562 16.4791 41.3781 16.527 41.3625 16.5707L40.7182 18.2932C40.7026 18.3348 40.6568 18.3567 40.6142 18.3421L38.747 17.6916C38.7054 17.677 38.6825 17.6323 38.696 17.5896L39.2497 15.8359C39.2632 15.7912 39.3111 15.7672 39.3548 15.7829Z" fill="#909193"/>
<path d="M50.4921 16.3689L51.153 15.8569C51.2206 15.8038 51.3195 15.8558 51.3132 15.9422L51.2591 16.7936C51.2539 16.8674 51.1748 16.9101 51.1103 16.8747L50.5046 16.5354C50.4421 16.5001 50.4348 16.4126 50.4921 16.3689Z" fill="#E8E6E7"/>
<path d="M48.3178 17.2078C48.374 17.2526 48.3833 17.3348 48.3386 17.391L48.042 17.7636C47.6007 18.3194 47.1875 18.7263 47.1188 18.6722L45.6368 17.493C45.5691 17.4389 45.872 16.9445 46.3143 16.3887L46.6109 16.0161C46.6557 15.9599 46.7369 15.9506 46.7931 15.9953L48.3178 17.2078Z" fill="#E8E6E7"/>
<path d="M21.511 17.5493L19.8759 18.8471C19.852 18.8669 19.8156 18.8638 19.7958 18.8398L18.6874 17.543C18.6666 17.5181 18.6697 17.4806 18.6957 17.4598L20.4192 16.0589C20.4452 16.0381 20.4837 16.0433 20.5035 16.0704L21.5214 17.4702C21.5401 17.4952 21.5349 17.5306 21.511 17.5493Z" fill="#E8E6E7"/>
<path d="M55.2619 16.8424L55.1037 17.1255C55.0777 17.1713 55.0184 17.1848 54.9757 17.1557L54.676 16.9548C54.6302 16.9236 54.6229 16.8601 54.6604 16.8195L54.9278 16.5291C54.9632 16.4906 55.0236 16.4906 55.059 16.5291L55.2505 16.7383C55.2765 16.7664 55.2817 16.8091 55.2619 16.8424Z" fill="#74787D"/>
<path d="M8.44825 16.6834L8.23489 17.5212C8.22344 17.567 8.16932 17.5879 8.12977 17.5608L7.39292 17.0487C7.34712 17.0165 7.35649 16.9457 7.40957 16.928L8.35978 16.6023C8.41078 16.5846 8.46178 16.6304 8.44825 16.6834Z" fill="#52A7E7"/>
<path d="M15.2768 16.8278C15.462 17.2754 15.7253 17.5772 16.2166 17.6459C16.2551 17.6511 16.2717 17.6969 16.2468 17.726C16.049 17.9591 15.9168 18.0341 15.9283 18.3775C15.9293 18.4108 15.8908 18.4316 15.8638 18.4108C15.6431 18.2443 15.3798 18.1142 15.0738 18.0205C15.0207 18.0039 15.0062 17.9362 15.0478 17.8998C15.3038 17.6729 15.2591 17.1557 15.2383 16.8372C15.233 16.7571 15.2455 16.7539 15.2768 16.8278Z" fill="#E8E6E7"/>
<path d="M59.8296 17.1049L60.8641 16.9915C60.8808 16.9894 60.8964 17.0008 60.9016 17.0164L61.142 17.8397C61.1483 17.8605 61.1337 17.8834 61.1108 17.8844L60.1106 17.9604C60.095 17.9614 60.0794 17.9521 60.0742 17.9365L59.8005 17.1517C59.7932 17.1309 59.8078 17.108 59.8296 17.1049Z" fill="#E8E6E7"/>
<path d="M42.3014 19.082L43.1756 17.548C43.2027 17.5011 43.262 17.4845 43.3089 17.5115C43.8865 17.8404 44.4558 18.2099 45.0168 18.6189C45.0563 18.648 45.0657 18.7022 45.0386 18.7428L44.0832 20.1842C44.0426 20.2446 43.9604 20.2602 43.9011 20.2175C43.4275 19.8761 42.9155 19.566 42.3628 19.286C42.2879 19.2475 42.2598 19.1549 42.3014 19.082Z" fill="#909193"/>
<path d="M52.1865 18.436C52.1584 18.3111 52.0834 18.2122 52.0678 18.079C52.0626 18.0332 52.0824 18.0062 52.1282 17.9989L52.8505 17.8875C52.9015 17.8792 52.9223 17.9 52.9129 17.951L52.7964 18.5588C52.7776 18.6556 52.7193 18.7045 52.6205 18.7035C52.3707 18.7014 52.226 18.6119 52.1865 18.436Z" fill="#E8E6E7"/>
<path d="M12.4521 18.0056L12.0064 17.9901C11.9667 17.9887 11.9334 18.0197 11.9321 18.0594L11.9233 18.3093C11.9219 18.349 11.953 18.3823 11.9927 18.3837L12.4384 18.3992C12.478 18.4006 12.5113 18.3696 12.5127 18.3299L12.5215 18.08C12.5228 18.0403 12.4918 18.007 12.4521 18.0056Z" fill="#74787D"/>
<path d="M25.0089 21.0275C28.0885 18.9428 31.8103 18.0644 35.53 18.3923C35.5727 18.3964 35.5956 18.4193 35.6008 18.462C35.606 18.5088 35.606 18.5546 35.6008 18.5994C35.5269 19.2655 35.454 19.9576 35.3812 20.6767C35.376 20.7267 35.3312 20.7631 35.2823 20.7569C34.0604 20.6247 32.8261 20.6726 31.5803 20.9005C27.2726 21.6884 23.5779 24.3808 21.5016 28.2629C21.4828 28.2983 21.4401 28.3128 21.4037 28.2962L19.4648 27.397C19.3971 27.3668 19.3805 27.3179 19.4127 27.2512C20.646 24.7524 22.6849 22.6011 25.0089 21.0275Z" fill="#74787D"/>
<path d="M49.5472 36.5693L47.4387 36.2914C47.3762 36.2831 47.3314 36.2258 47.3387 36.1634C47.8518 31.8026 46.4895 27.6281 43.2891 24.5745C41.652 23.0123 39.7287 21.9112 37.5212 21.269C37.4452 21.2461 37.4015 21.167 37.4244 21.0921C37.619 20.4375 37.7866 19.762 37.9261 19.0647C37.9386 19.0033 38 18.9648 38.0614 18.9814C41.881 20.0243 45.2073 22.444 47.3596 25.7537C49.1559 28.5169 49.9375 31.8172 49.7752 35.1486C49.7533 35.5868 49.7023 36.0427 49.6222 36.5152C49.6159 36.5506 49.5826 36.5735 49.5472 36.5693Z" fill="#52A7E7"/>
<path d="M50.3235 19.0373L51.5891 20.4986C51.6328 20.5496 51.6265 20.6266 51.5745 20.6693L50.286 21.736C50.2361 21.7777 50.1622 21.7714 50.1195 21.7225L48.9091 20.331C48.8664 20.2821 48.8706 20.2082 48.9185 20.1645L50.1518 19.0269C50.2017 18.9811 50.2787 18.9863 50.3235 19.0373Z" fill="#52A7E7"/>
<path d="M15.2764 21.0772L16.6533 19.4703C16.6814 19.436 16.7324 19.4328 16.7657 19.462L17.9844 20.5454C18.0167 20.5746 18.0209 20.6224 17.9938 20.6547L16.7345 22.1909C16.7074 22.2242 16.6595 22.2304 16.6262 22.2044L15.2878 21.1917C15.2514 21.1636 15.2462 21.1116 15.2764 21.0772Z" fill="#E8E6E7"/>
<path d="M8.75326 19.9626C8.82195 19.8565 8.87087 19.7472 8.89897 19.6337C8.9125 19.5775 8.93436 19.5744 8.9635 19.6244L9.16541 19.9689C9.18414 20.0011 9.20912 20.0282 9.24034 20.049L9.44433 20.1874C9.48076 20.2124 9.48388 20.2405 9.4537 20.2728C9.22785 20.5111 9.06861 20.815 8.97495 21.1824C8.96246 21.2303 8.90834 21.2553 8.86462 21.2324C8.50972 21.0481 8.14962 20.8951 7.7864 20.7744C7.7687 20.7682 7.75829 20.7505 7.76141 20.7328L7.9602 19.7482C7.96332 19.7326 7.98206 19.7285 7.99246 19.7399C8.1569 19.9293 8.55239 20.2738 8.75326 19.9626Z" fill="#E8E6E7"/>
<path d="M47.7714 21.761C47.4602 22.0305 47.1376 22.3157 46.8045 22.6144C46.7556 22.6581 46.6807 22.6571 46.6338 22.6113L45.463 21.4789C45.4286 21.4456 45.4276 21.4113 45.4598 21.3759L46.7036 20.0302C46.7327 19.9979 46.7639 19.9969 46.7972 20.025C47.2645 20.4298 47.6902 20.8565 48.0742 21.3051C48.1127 21.3488 48.1127 21.4144 48.0742 21.4581C47.9837 21.5632 47.8827 21.6642 47.7714 21.761Z" fill="#52A7E7"/>
<path d="M19.056 21.5923L20.5308 20.1498C20.5724 20.1092 20.639 20.1102 20.6796 20.1529L21.9025 21.4466C21.94 21.4872 21.94 21.5496 21.9015 21.5902L20.5599 22.988C20.5204 23.0296 20.4559 23.0306 20.4142 22.9932L19.0581 21.7432C19.0144 21.7037 19.0133 21.6339 19.056 21.5923Z" fill="#909193"/>
<path d="M56.2795 21.3638C55.8237 21.2722 55.2273 21.3263 54.9921 21.7853C54.9536 21.8592 54.9245 21.856 54.9036 21.7749L54.6289 20.7372C54.6185 20.6997 54.632 20.6758 54.6695 20.6654L55.8997 20.3136C55.9371 20.3032 55.9767 20.3251 55.986 20.3636C56.0662 20.6873 56.1796 21.0016 56.3243 21.3065C56.3461 21.3554 56.3316 21.3742 56.2795 21.3638Z" fill="#E8E6E7"/>
<path d="M61.2035 21.0937C61.2836 21.2831 61.3669 21.4788 61.4543 21.6797C61.4834 21.7463 61.4616 21.7827 61.3887 21.7889L60.374 21.8774C60.3126 21.8826 60.2553 21.8462 60.2345 21.7889L59.966 21.0677C59.9514 21.0281 59.9691 20.9844 60.0076 20.9678L61.2056 20.4203C61.3034 20.3756 61.3315 20.4026 61.2888 20.5015C61.2097 20.6888 61.1161 20.8876 61.2035 21.0937Z" fill="#E8E6E7"/>
<path d="M5.97432 20.6464L6.03572 21.528C6.03988 21.5883 5.97952 21.631 5.92332 21.6081L5.10632 21.273C5.047 21.248 5.03763 21.1689 5.08967 21.1314L5.8463 20.5861C5.8973 20.5486 5.97015 20.583 5.97432 20.6464Z" fill="#E8E6E7"/>
<path d="M10.8596 23.0465C10.666 23.0621 10.4735 23.1027 10.282 23.1704C10.1956 23.2006 10.18 23.1787 10.233 23.1048C10.5494 22.6646 10.8325 22.2826 10.9033 21.7216C10.9085 21.6852 10.9449 21.6634 10.9793 21.6769L11.8077 22.0068C11.8858 22.038 11.9243 22.1265 11.8931 22.2046C11.7328 22.6073 11.6651 23.0132 11.6901 23.4223C11.6932 23.4774 11.6724 23.4899 11.6266 23.4576C11.3789 23.287 11.1885 23.0205 10.8596 23.0465Z" fill="#E8E6E7"/>
<path d="M63.6725 23.0766L62.6827 23.5636C62.6629 23.573 62.639 23.5584 62.64 23.5355L62.689 22.5156C62.69 22.4927 62.7004 22.475 62.7202 22.4625C62.7629 22.4355 62.8055 22.4344 62.8482 22.4594C63.1344 22.629 63.4113 22.8112 63.6787 23.0047C63.7047 23.0235 63.7016 23.062 63.6725 23.0766Z" fill="#E8E6E7"/>
<path d="M53.1324 22.6553L54.0607 24.3164C54.0951 24.3767 54.0711 24.4537 54.0087 24.485L52.5266 25.2187C52.4684 25.2479 52.3965 25.225 52.3653 25.1667L51.5317 23.618C51.5004 23.5608 51.5202 23.49 51.5754 23.4557L52.9627 22.6106C53.022 22.5752 53.0991 22.5949 53.1324 22.6553Z" fill="#52A7E7"/>
<path d="M48.1586 24.1392L49.522 23.1234C49.5605 23.0943 49.6167 23.1036 49.6448 23.1442L50.5409 24.4597C50.568 24.5003 50.5565 24.5565 50.5138 24.5815L49.0047 25.4943C48.9641 25.5192 48.9121 25.5067 48.8871 25.4662L48.1367 24.2547C48.1128 24.2162 48.1222 24.1662 48.1586 24.1392Z" fill="#52A7E7"/>
<path d="M18.2929 26.1263L16.6256 25.2677C16.5621 25.2354 16.5392 25.1574 16.5736 25.0949C16.9056 24.5027 17.2875 23.9178 17.7174 23.3423C17.7423 23.3079 17.7912 23.3006 17.8256 23.3256C18.3428 23.6972 18.8622 24.0354 19.3826 24.3404C19.4211 24.3633 19.4325 24.4143 19.4065 24.4507C19.0506 24.9534 18.7071 25.5039 18.3762 26.1013C18.3595 26.1305 18.3231 26.1419 18.2929 26.1263Z" fill="#909193"/>
<path d="M15.4181 24.3557C15.0611 24.9229 14.7759 25.5745 14.5074 26.1937C14.4876 26.2395 14.4345 26.2603 14.3887 26.2416L12.8151 25.5963C12.7475 25.5682 12.7277 25.5203 12.7579 25.4527C13.0607 24.7793 13.399 24.1122 13.7747 23.4513C13.7882 23.4274 13.8184 23.418 13.8423 23.4315L15.3952 24.2693C15.4264 24.286 15.4368 24.3255 15.4181 24.3557Z" fill="#909193"/>
<path d="M27.186 29.8165L33.339 24.1412C33.3682 24.1142 33.4129 24.1163 33.44 24.1444L34.4766 25.2299C34.5047 25.259 34.5036 25.3048 34.4735 25.3329L28.3423 30.9728C28.3132 30.9988 28.2695 30.9988 28.2424 30.9718L27.1839 29.9206C27.1548 29.8915 27.1558 29.8446 27.186 29.8165Z" fill="#E8E6E7"/>
<path d="M5.64551 25.7731C5.3874 25.5598 5.12825 25.4567 4.78064 25.4619C4.62556 25.464 4.60995 25.4182 4.73484 25.3256C5.1116 25.0446 5.22192 24.7927 5.05019 24.2724C5.0096 24.1495 5.04187 24.1246 5.14907 24.1985C5.47066 24.4201 5.85262 24.5669 6.29495 24.6397C6.35219 24.6491 6.35739 24.672 6.31056 24.7064C5.95045 24.9665 5.60596 25.2111 5.73189 25.719C5.75791 25.8252 5.72981 25.8429 5.64551 25.7731Z" fill="#E8E6E7"/>
<path d="M56.0809 25.2666L56.976 24.7212C56.9958 24.7087 57.0207 24.7202 57.0238 24.7431L57.1758 25.7578C57.1789 25.7807 57.1571 25.7994 57.1352 25.7921L56.237 25.4924C56.2318 25.4903 56.2266 25.4872 56.2235 25.483L56.0736 25.3144C56.0601 25.2999 56.0643 25.277 56.0809 25.2666Z" fill="#E8E6E7"/>
<path d="M8.31806 27.7435C8.03185 27.3303 7.70192 27.2741 7.27417 27.0878C7.18883 27.0503 7.18987 27.017 7.27833 26.9889C7.56038 26.8984 7.82369 26.7974 7.85388 26.4529C7.86949 26.2645 7.88926 26.072 7.91216 25.8753C7.91632 25.8399 7.96107 25.8274 7.98293 25.8545C8.27643 26.2094 8.623 26.43 9.02265 26.5154C9.14338 26.5414 9.14442 26.5726 9.02682 26.609C8.41172 26.7974 8.38883 27.1617 8.38258 27.7237C8.38154 27.7976 8.36073 27.8038 8.31806 27.7435Z" fill="#E8E6E7"/>
<path d="M34.05 28.5033C34.0427 28.3482 34.0937 28.2212 34.2041 28.1203C34.9357 27.4521 35.7205 26.734 36.5593 25.9649C36.6041 25.9243 36.6728 25.9264 36.7154 25.9701L37.8145 27.1284C37.8197 27.1336 37.8197 27.144 37.8134 27.1493L34.0022 30.5224C33.9626 30.5578 33.9449 30.5494 33.9491 30.4963C33.998 29.9166 34.0323 29.3453 34.0521 28.7801C34.0552 28.6885 34.0542 28.5959 34.05 28.5033Z" fill="#E8E6E7"/>
<path d="M4.06471 26.94L3.47876 26.811C3.44337 26.8037 3.42152 26.7662 3.43192 26.7308L3.5922 26.2052C3.60053 26.1751 3.63071 26.1563 3.66297 26.1605L4.14901 26.2396C4.18231 26.2448 4.20521 26.275 4.20209 26.3083L4.14172 26.8849C4.13756 26.9223 4.10217 26.9483 4.06471 26.94Z" fill="#E8E6E7"/>
<path d="M61.1322 26.3373C61.2643 26.5829 61.4236 26.7911 61.6151 26.9899C61.6317 27.0065 61.6213 27.0356 61.5974 27.0377C61.3143 27.0637 61.0364 27.1147 60.7648 27.1907C60.4817 27.2698 60.5296 27.5342 60.4213 27.7371C60.3974 27.7819 60.3329 27.7788 60.3131 27.7319L59.9436 26.8712C59.9311 26.841 59.9447 26.8056 59.9738 26.7921L61.0042 26.2957C61.051 26.2728 61.1072 26.2915 61.1322 26.3373Z" fill="#E8E6E7"/>
<path d="M49.7958 27.1648C49.7843 27.1336 49.7989 27.1003 49.828 27.0857L51.3913 26.3665C51.4537 26.3374 51.5266 26.3655 51.5536 26.4279C51.7274 26.8328 51.8877 27.2241 52.0345 27.6029C52.1042 27.7809 52.1521 27.9412 52.1802 28.0838C52.1927 28.1473 52.1562 28.2107 52.0948 28.2316L50.4671 28.7811C50.4348 28.7925 50.3994 28.7759 50.388 28.7436L49.7958 27.1648Z" fill="#52A7E7"/>
<path d="M64.1073 27.1889C64.0647 27.1608 64.0345 27.1234 64.0168 27.0755C64.0064 27.0484 64.0178 27.0182 64.0428 27.0047C64.1656 26.9371 64.2322 26.8246 64.2416 26.6665C64.2447 26.605 64.2957 26.5572 64.3571 26.5561L64.8723 26.5488C64.9295 26.5478 64.9826 26.5842 65.0034 26.6384L65.2032 27.1525C65.2324 27.2274 65.2095 27.2805 65.1356 27.3107L64.4612 27.5907C64.3946 27.6188 64.3488 27.599 64.3228 27.5313C64.2759 27.4033 64.2281 27.2659 64.1073 27.1889Z" fill="#E8E6E7"/>
<path d="M53.8394 29.2661L53.3669 27.4426C53.3533 27.3885 53.3835 27.3323 53.4376 27.3146L54.9613 26.813C55.0196 26.7932 55.082 26.8276 55.0987 26.8869L55.6336 28.8477C55.6493 28.907 55.6128 28.9674 55.5535 28.9809L53.9674 29.3441C53.9101 29.3566 53.8539 29.3223 53.8394 29.2661Z" fill="#52A7E7"/>
<path d="M36.9871 28.2887C37.2567 28.0805 37.5804 27.7808 37.9582 27.3905C37.9977 27.3489 38.0643 27.3489 38.1049 27.3894L44.287 33.6403C44.3203 33.6736 44.3193 33.7069 44.285 33.7391L43.2234 34.7352C43.1786 34.7778 43.1079 34.7757 43.0641 34.732L36.8935 28.4906C36.8435 28.4396 36.8477 28.3938 36.9049 28.3511C36.9351 28.3293 36.9632 28.3084 36.9871 28.2887Z" fill="#E8E6E7"/>
<path d="M14.7879 29.7417L15.3384 27.8319C15.3551 27.7757 15.4154 27.7434 15.4716 27.7622L17.2503 28.3606C17.3034 28.3794 17.3325 28.4356 17.3169 28.4886L16.7955 30.2933C16.7799 30.3485 16.7237 30.3797 16.6685 30.3651L14.8607 29.8708C14.8045 29.8552 14.7723 29.7969 14.7879 29.7417Z" fill="#909193"/>
<path d="M58.1811 28.2857L57.8346 28.675C57.8169 28.6958 57.7846 28.6968 57.7648 28.6781L57.3558 28.293C57.336 28.2743 57.335 28.2431 57.3548 28.2233L57.7617 27.8122C57.7815 27.7924 57.8148 27.7935 57.8335 27.8153L58.1811 28.2212C58.1978 28.2399 58.1967 28.267 58.1811 28.2857Z" fill="#E8E6E7"/>
<path d="M11.2935 30.2393L11.7628 28.1338C11.7712 28.0984 11.8066 28.0765 11.8409 28.0859L13.5644 28.5293C13.5977 28.5386 13.6185 28.5709 13.6112 28.6042L13.1845 30.5879C13.1772 30.6212 13.145 30.6431 13.1117 30.6368L11.3434 30.3152C11.308 30.309 11.2851 30.2746 11.2935 30.2393Z" fill="#909193"/>
<path d="M30.9934 33.1553L29.9537 32.1031C29.9256 32.074 29.9256 32.0271 29.9558 31.999L33.6692 28.5812C33.7223 28.5323 33.7462 28.5437 33.7389 28.6166C33.6713 29.3274 33.639 30.0507 33.6401 30.7886C33.6401 30.8219 33.6265 30.8532 33.6016 30.875C32.8678 31.5297 32.1372 32.1968 31.4097 32.8785C31.3025 32.9784 31.1891 33.0731 31.0694 33.1616C31.0423 33.1813 31.0173 33.1793 30.9934 33.1553Z" fill="#E8E6E7"/>
<path d="M5.60501 29.3202C5.91099 29.6179 6.3096 29.8656 6.73423 29.9489C6.79252 29.9603 6.79564 29.9801 6.74256 30.0082C6.23259 30.2767 6.06815 30.514 6.05045 31.0968C6.04525 31.2561 6.00362 31.2665 5.92452 31.1291C5.74031 30.8106 5.47699 30.6056 5.13354 30.515C4.97951 30.4744 4.97638 30.4245 5.12417 30.3652C5.26884 30.3069 5.39581 30.2174 5.50301 30.0956C5.53528 30.0592 5.55297 30.0123 5.55297 29.9634L5.54985 29.3431C5.54985 29.2921 5.56858 29.2838 5.60501 29.3202Z" fill="#E8E6E7"/>
<path d="M18.5104 29.5678C18.5301 29.4867 18.6124 29.4367 18.6935 29.4565L19.5303 29.6636C20.1485 29.8166 20.6377 29.9914 20.6221 30.0528L20.1236 32.0677C20.1079 32.1292 19.5948 32.0553 18.9766 31.9023L18.1399 31.6962C18.0587 31.6754 18.0087 31.5932 18.0285 31.512L18.5104 29.5678Z" fill="#74787D"/>
<path d="M10.1998 29.6011L10.2248 30.619C10.2269 30.6679 10.1769 30.7012 10.1321 30.6835L9.12573 30.2735C9.07473 30.2526 9.06849 30.1829 9.11636 30.1538L10.0968 29.546C10.1405 29.5179 10.1988 29.5491 10.1998 29.6011Z" fill="#E8E6E7"/>
<path d="M60.5833 29.7437L60.2669 30.8833C60.2534 30.9333 60.1868 30.9447 60.1577 30.901L59.555 30.0028C59.4947 29.9123 59.5186 29.8613 59.6258 29.8488C59.9152 29.8155 60.1993 29.7479 60.4782 29.6469C60.5396 29.625 60.601 29.6812 60.5833 29.7437Z" fill="#E8E6E7"/>
<path d="M3.62549 30.877L2.59305 30.2692C2.55558 30.2463 2.55974 30.1912 2.60033 30.1755L3.71291 29.7322C3.74934 29.7176 3.78784 29.7457 3.78472 29.7842L3.70354 30.8364C3.70042 30.8749 3.65879 30.8968 3.62549 30.877Z" fill="#E8E6E7"/>
<path d="M52.7819 30.0113L53.0494 31.8202C53.0577 31.8784 53.0171 31.9326 52.9578 31.9399L51.2395 32.1543C51.1833 32.1615 51.1323 32.123 51.1229 32.0679L50.8378 30.4089C50.8284 30.3527 50.8648 30.2996 50.92 30.2882L52.656 29.9239C52.7153 29.9114 52.7726 29.952 52.7819 30.0113Z" fill="#52A7E7"/>
<path d="M36.9526 33.5093L34.9002 31.4122C34.8856 31.3976 34.8867 31.3747 34.9012 31.3612L36.0835 30.2861C36.0971 30.2736 36.1189 30.2736 36.1325 30.2871L39.2391 33.4677C39.261 33.4906 39.2454 33.5281 39.2142 33.5281L36.9776 33.5197C36.9682 33.5197 36.9588 33.5156 36.9526 33.5093Z" fill="#E8E6E7"/>
<path d="M28.1488 34.4792L25.3668 31.6608C25.346 31.64 25.346 31.6056 25.3678 31.5838L26.5501 30.4369C26.571 30.416 26.6053 30.4171 26.6261 30.4389L30.4603 34.4105C30.4936 34.4448 30.4686 34.5021 30.4207 34.5021L28.1873 34.4948C28.1727 34.4948 28.1592 34.4886 28.1488 34.4792Z" fill="#E8E6E7"/>
<path d="M64.8919 30.6823L64.2859 30.7513C64.2591 30.7544 64.2398 30.7786 64.2428 30.8054L64.3034 31.337C64.3065 31.3638 64.3307 31.3831 64.3575 31.38L64.9635 31.311C64.9903 31.3079 65.0096 31.2837 65.0066 31.2568L64.946 30.7253C64.943 30.6985 64.9187 30.6792 64.8919 30.6823Z" fill="#E8E6E7"/>
<path d="M56.0641 31.4056L56.2005 33.2322C56.2047 33.2894 56.1609 33.3383 56.1037 33.3404L54.504 33.4081C54.4489 33.4101 54.402 33.3685 54.3989 33.3133L54.2969 31.6554C54.2938 31.6023 54.3313 31.5565 54.3833 31.5493L55.9486 31.314C56.0059 31.3047 56.06 31.3473 56.0641 31.4056Z" fill="#52A7E7"/>
<path d="M16.5202 31.9418L16.3943 33.8901C16.3922 33.9234 16.3631 33.9494 16.3298 33.9474L14.3388 33.835C14.3044 33.8339 14.2784 33.8037 14.2805 33.7694L14.4179 31.7274C14.42 31.6931 14.4512 31.6671 14.4855 31.6702L16.4661 31.8762C16.4984 31.8794 16.5223 31.9085 16.5202 31.9418Z" fill="#909193"/>
<path d="M11.4113 32.6505L10.3882 33.1064C10.3601 33.1179 10.33 33.0991 10.3279 33.0689L10.2738 31.9033C10.2717 31.8679 10.3102 31.846 10.3393 31.8648L11.4176 32.5767C11.4457 32.5954 11.4415 32.637 11.4113 32.6505Z" fill="#E8E6E7"/>
<path d="M8.57316 34.0702L7.62398 33.452C7.57923 33.4228 7.58755 33.3552 7.63855 33.3375L8.70846 32.967C8.75321 32.9514 8.799 32.9888 8.7938 33.0357L8.67203 34.0244C8.66682 34.0712 8.61271 34.0962 8.57316 34.0702Z" fill="#E8E6E7"/>
<path d="M58.9285 33.4176L58.6235 33.8391C58.6006 33.8704 58.5559 33.8756 58.5257 33.8506L58.1094 33.4905C58.0792 33.4655 58.0782 33.4208 58.1052 33.3927L58.508 32.9972C58.534 32.9712 58.5767 32.9711 58.6027 32.9982L58.9222 33.3323C58.9441 33.3562 58.9472 33.3916 58.9285 33.4176Z" fill="#E8E6E7"/>
<path d="M3.20338 33.5456L2.5726 33.6174C2.55718 33.6192 2.5461 33.6331 2.54786 33.6485L2.62161 34.2959C2.62337 34.3113 2.63729 34.3224 2.65271 34.3206L3.2835 34.2487C3.29892 34.247 3.30999 34.233 3.30824 34.2176L3.23448 33.5703C3.23273 33.5549 3.2188 33.5438 3.20338 33.5456Z" fill="#E8E6E7"/>
<path d="M29.7204 41.1183L23.5164 34.8217C23.504 34.8092 23.504 34.7884 23.5175 34.7769L24.6894 33.682C24.7019 33.6706 24.7206 33.6706 24.7331 33.6831L30.9485 40.0078C30.961 40.0203 30.96 40.0411 30.9475 40.0526L29.7631 41.1193C29.7506 41.1308 29.7319 41.1297 29.7204 41.1183Z" fill="#E8E6E7"/>
<path d="M39.6201 33.8693L42.4958 36.7886C42.5197 36.8136 42.5187 36.8532 42.4937 36.8761L41.378 37.9283C41.3541 37.9512 41.3156 37.9512 41.2916 37.9272L37.3159 33.8964C37.2774 33.8568 37.3055 33.7902 37.3606 33.7923L39.5775 33.8506C39.5931 33.8516 39.6087 33.8579 39.6201 33.8693Z" fill="#E8E6E7"/>
<path d="M20.0007 34.1856C20.0091 34.9111 20.0601 35.6 20.1537 36.2505C20.161 36.3005 20.1392 36.3275 20.0892 36.3327L18.1138 36.5159C18.0441 36.5222 17.9827 36.4722 17.9744 36.4035C17.8922 35.6885 17.8526 34.96 17.8547 34.2169C17.8547 34.1867 17.8786 34.1628 17.9088 34.1617L19.9331 34.1211C19.9695 34.1201 19.9997 34.1492 20.0007 34.1856Z" fill="#74787D"/>
<path d="M30.8247 34.8329L32.9239 36.9883C32.9468 37.0112 32.9458 37.0497 32.9219 37.0726L31.7833 38.1508C31.7593 38.1737 31.7229 38.1727 31.7 38.1498L28.5205 34.888C28.4841 34.8505 28.5111 34.7871 28.5642 34.7881L30.7831 34.8152C30.7987 34.8152 30.8143 34.8214 30.8247 34.8329Z" fill="#E8E6E7"/>
<path d="M61.8402 35.4255C61.784 35.6607 61.9599 36.0323 62.0869 36.2373C62.1316 36.3091 62.1129 36.3362 62.0307 36.3195C61.7018 36.2519 61.3771 36.2519 61.0555 36.3174C61.0087 36.3268 60.966 36.2883 60.9701 36.2404L61.0232 35.6992C61.0274 35.6597 61.017 35.6243 60.993 35.5941C60.8692 35.4369 60.8369 35.2652 60.8963 35.0768C60.9098 35.0321 60.9504 35.0019 60.9972 34.9998L62.0609 34.9551C62.1358 34.9519 62.1514 34.9811 62.1087 35.0425C62.0276 35.158 61.8735 35.2891 61.8402 35.4255Z" fill="#E8E6E7"/>
<path d="M37.8738 36.3995L34.0864 39.8507C34.0115 39.9184 33.9813 39.9027 33.9948 39.8028C34.0895 39.1118 34.049 38.3843 34.0927 37.6922C34.0968 37.637 34.1197 37.5902 34.1603 37.5527L36.7549 35.2006C36.7882 35.1694 36.8413 35.1735 36.8705 35.2079C37.1785 35.568 37.5126 35.9073 37.8717 36.2268C37.9237 36.2726 37.9248 36.3537 37.8738 36.3995Z" fill="#E8E6E7"/>
<path d="M12.5581 35.6472C12.5883 35.7315 12.6986 35.7492 12.7548 35.6795L12.989 35.3891C13.0296 35.3381 13.0514 35.3444 13.0525 35.4099C13.0577 35.6275 13.0108 35.82 12.912 35.9876C12.8943 36.0188 12.8912 36.051 12.9036 36.0844L13.0275 36.4174C13.0618 36.509 13.0348 36.5329 12.9484 36.4882L12.6528 36.3383C12.6185 36.3206 12.5862 36.3237 12.556 36.3466C12.4561 36.4216 12.3406 36.459 12.2105 36.459C12.1324 36.458 12.0981 36.4195 12.1075 36.3414C12.1481 36.024 12.2386 35.7534 12.3791 35.5317C12.4145 35.4755 12.4998 35.4838 12.5227 35.5473L12.5581 35.6472Z" fill="#E8E6E7"/>
<path d="M50.7728 37.4535L51.058 35.5541C51.0642 35.5104 51.1048 35.4792 51.1496 35.4854L53.0271 35.7258C53.0739 35.731 53.1052 35.7737 53.0979 35.8195L52.7825 37.8459C52.7752 37.8917 52.7305 37.9229 52.6847 37.9135L50.8384 37.5461C50.7957 37.5368 50.7666 37.4962 50.7728 37.4535Z" fill="#52A7E7"/>
<path d="M56.1515 35.7124L55.935 37.617C55.933 37.6368 55.9153 37.6503 55.8955 37.6472L54.1772 37.3932C54.1585 37.3901 54.146 37.3735 54.1481 37.3547L54.3614 35.6239C54.3635 35.6062 54.3791 35.5938 54.3978 35.5938L56.1193 35.6739C56.139 35.6749 56.1536 35.6926 56.1515 35.7124Z" fill="#52A7E7"/>
<path d="M14.6875 38.0918L14.368 36.0217C14.3638 35.9916 14.3846 35.9635 14.4148 35.9593L16.385 35.6897C16.4151 35.6856 16.4422 35.7064 16.4464 35.7366L16.7222 37.7057C16.7263 37.7348 16.7066 37.7619 16.6785 37.7671L14.752 38.1376C14.7218 38.1428 14.6916 38.122 14.6875 38.0918Z" fill="#909193"/>
<path d="M8.97477 36.5867L9.80218 36.0986C9.84693 36.0736 9.90209 36.1049 9.90105 36.1559L9.89689 37.1165C9.89689 37.1664 9.84173 37.1977 9.79802 37.1727L8.97581 36.7002C8.9321 36.6742 8.93106 36.6117 8.97477 36.5867Z" fill="#E8E6E7"/>
<path d="M58.2405 36.3715C58.175 36.7483 58.2717 36.9773 58.4112 37.3165C58.431 37.3655 58.4154 37.3884 58.3623 37.3852L57.2986 37.3322C57.2476 37.3301 57.2216 37.3041 57.2195 37.2531L57.1935 36.5037C57.1914 36.4569 57.2102 36.4454 57.2508 36.4683C57.3996 36.5526 57.5619 36.6088 57.7368 36.6359C57.7805 36.6421 57.818 36.6296 57.8492 36.5974L58.125 36.3122C58.227 36.2071 58.2655 36.2269 58.2405 36.3715Z" fill="#E8E6E7"/>
<path d="M64.8234 37.8512C64.7828 37.8897 64.762 37.8804 64.761 37.8242C64.7589 37.7222 64.6871 37.4276 64.5455 36.9395C64.5414 36.925 64.5507 36.9093 64.5664 36.9062L65.5551 36.6981C65.6009 36.6887 65.6311 36.7054 65.6446 36.7501L65.8767 37.5161C65.8923 37.5702 65.8725 37.5942 65.8174 37.5869C65.4 37.5338 65.068 37.6223 64.8234 37.8512Z" fill="#E8E6E7"/>
<path d="M33.2351 43.1084L39.5452 37.3103C39.5598 37.2978 39.5806 37.2978 39.5931 37.3113L40.7109 38.4634C40.7244 38.477 40.7244 38.4988 40.7098 38.5123L34.3685 44.2917C34.3549 44.3042 34.3331 44.3042 34.3206 44.2907L33.233 43.1573C33.2205 43.1437 33.2205 43.1219 33.2351 43.1084Z" fill="#E8E6E7"/>
<path d="M33.6512 40.2753L31.1607 42.5359C31.1471 42.5484 31.1253 42.5484 31.1118 42.5348L29.9836 41.4046C29.969 41.39 29.97 41.3671 29.9846 41.3536L33.6876 37.9524C33.7105 37.9315 33.748 37.9482 33.747 37.9794L33.6637 40.2504C33.6627 40.2597 33.6585 40.2681 33.6512 40.2753Z" fill="#E8E6E7"/>
<path d="M47.12 37.9918C47.6778 38.2468 48.27 38.4424 48.8487 38.6495C48.9319 38.6787 48.9767 38.7692 48.9507 38.8525C48.7581 39.4738 48.5125 40.1035 48.2128 40.7394C48.1815 40.807 48.1004 40.8351 48.0327 40.8029L46.3685 39.9973C46.304 39.9671 46.2769 39.8901 46.3071 39.8246C46.5829 39.2209 46.8129 38.6277 46.9982 38.0459C47.0138 37.9949 47.071 37.9689 47.12 37.9918Z" fill="#74787D"/>
<path d="M18.6217 38.8638C18.5988 38.7826 18.6279 38.7285 18.7081 38.7025L20.492 38.1113C20.5378 38.0968 20.5856 38.1217 20.5992 38.1665C20.7896 38.7858 21.0186 39.3904 21.2861 39.9806C21.3069 40.0263 21.2861 40.0805 21.2392 40.1002L19.5199 40.8215C19.4116 40.8673 19.3325 40.8371 19.2836 40.7299C19.0484 40.2178 18.8278 39.5955 18.6217 38.8638Z" fill="#74787D"/>
<path d="M61.3597 39.1046L60.4657 39.4845C60.4105 39.5074 60.3502 39.4637 60.3564 39.4033L60.4553 38.4375C60.4615 38.3761 60.5313 38.3459 60.5812 38.3813L61.3753 38.9672C61.4253 39.0037 61.4159 39.0807 61.3597 39.1046Z" fill="#52A7E7"/>
<path d="M52.2123 39.8425L51.4692 41.7336C51.4442 41.7971 51.3714 41.8273 51.3089 41.7981L49.6947 41.0467C49.6385 41.0207 49.6114 40.9562 49.6333 40.8979L50.264 39.2066C50.2859 39.1473 50.3514 39.1161 50.4118 39.1348L52.1384 39.6864C52.204 39.7072 52.2383 39.779 52.2123 39.8425Z" fill="#52A7E7"/>
<path d="M17.15 39.3585L17.8317 41.1892C17.8452 41.2246 17.8275 41.2642 17.7921 41.2788L16.0176 42.0146C15.9801 42.0302 15.9385 42.0125 15.9239 41.975L15.1777 40.0309C15.1642 39.9934 15.1829 39.9518 15.2214 39.9383L17.0615 39.3159C17.0969 39.3034 17.1364 39.3221 17.15 39.3585Z" fill="#909193"/>
<path d="M57.0696 39.4104L58.2394 40.0078C58.2831 40.0307 58.2852 40.0931 58.2425 40.1181L57.106 40.7759C57.0644 40.7988 57.0134 40.7707 57.0123 40.7228L56.979 39.4676C56.978 39.4208 57.0279 39.3896 57.0696 39.4104Z" fill="#E8E6E7"/>
<path d="M12.8879 40.5388L12.5684 39.6739C12.5611 39.6552 12.5736 39.6344 12.5934 39.6312L13.5956 39.472C13.6102 39.4699 13.6258 39.4782 13.631 39.4928L13.9401 40.3296C13.9474 40.3483 13.9359 40.3681 13.9162 40.3723L12.9243 40.5596C12.9087 40.5627 12.8931 40.5544 12.8879 40.5388Z" fill="#E8E6E7"/>
<path d="M55.3305 40.0451L54.7248 41.828C54.7112 41.8685 54.6665 41.8894 54.6269 41.8737L53.1157 41.3003C53.0772 41.2857 53.0585 41.2441 53.071 41.2066L53.6059 39.5966C53.6184 39.5591 53.6569 39.5372 53.6954 39.5466L55.2774 39.9483C55.3201 39.9587 55.344 40.0035 55.3305 40.0451Z" fill="#52A7E7"/>
<path d="M3.60444 40.5665L3.01329 40.6508C2.98623 40.655 2.96125 40.6352 2.95917 40.6071L2.9113 40.0212C2.90922 39.9951 2.92691 39.9722 2.95189 39.9691L3.55553 39.889C3.58363 39.8859 3.60757 39.9067 3.60965 39.9337L3.64504 40.5166C3.64712 40.5415 3.62942 40.5634 3.60444 40.5665Z" fill="#E8E6E7"/>
<path d="M6.8185 41.0789C6.85284 41.0581 6.87366 41.0206 6.87366 40.98L6.8747 40.0589C6.8747 40.0027 6.89343 39.9954 6.93194 40.0371C7.29517 40.4367 7.72813 40.7542 8.2329 40.9894C8.26412 41.0039 8.27036 41.0466 8.2433 41.0695C7.84053 41.4109 7.55224 41.8064 7.37947 42.257C7.32119 42.4079 7.26187 42.4079 7.20046 42.2581C7.04331 41.8719 6.7623 41.6284 6.3564 41.5274C6.22734 41.4952 6.22006 41.4452 6.3335 41.3755L6.8185 41.0789Z" fill="#E8E6E7"/>
<path d="M61.5085 41.4784L61.5355 41.7907C61.5397 41.8354 61.5199 41.851 61.4773 41.8385C61.2285 41.7647 61.0787 41.6627 60.8903 41.9447C60.7758 42.1144 60.73 42.0977 60.7529 41.8947C60.7654 41.7855 60.7643 41.671 60.7487 41.5513C60.7435 41.5076 60.7133 41.4712 60.6717 41.4566C60.551 41.415 60.4469 41.3608 60.3605 41.2953C60.3126 41.2578 60.3199 41.1829 60.3751 41.1558C60.6093 41.0424 60.8101 40.9164 60.9767 40.778C61.1005 40.676 61.1359 40.5261 61.189 40.3836C61.2296 40.2743 61.2681 40.2753 61.3035 40.3856C61.3982 40.675 61.393 41.0559 61.7687 41.1371C61.8197 41.1485 61.853 41.1766 61.8696 41.2224C61.8811 41.2547 61.8707 41.2765 61.8384 41.288L61.5595 41.3962C61.521 41.4108 61.5043 41.4379 61.5085 41.4784Z" fill="#E8E6E7"/>
<path d="M10.7733 41.5667L9.58685 41.0369C9.54939 41.0203 9.54835 40.9672 9.58581 40.9484L10.7504 40.3739C10.7827 40.3573 10.8202 40.3802 10.8212 40.4166L10.842 41.5219C10.8431 41.5573 10.8056 41.5823 10.7733 41.5667Z" fill="#E8E6E7"/>
<path d="M63.7461 41.367C63.3912 41.5939 63.5452 41.9821 63.6867 42.2777C63.6992 42.3048 63.6732 42.3339 63.6451 42.3246C63.3662 42.2298 63.0841 42.1684 62.8 42.1414C62.7084 42.133 62.6408 42.0529 62.647 41.9613C62.673 41.5679 62.7542 41.1579 62.8895 40.7322C62.9062 40.6812 62.9311 40.676 62.9655 40.7187C63.1372 40.9351 63.3891 41.0912 63.72 41.187C63.8605 41.2276 63.8699 41.2879 63.7461 41.367Z" fill="#52A7E7"/>
<path d="M46.8773 42.9533C46.921 42.9845 46.9314 43.0459 46.9002 43.0896C46.4839 43.6818 46.026 44.2355 45.5264 44.7497C45.4931 44.785 45.4379 44.7871 45.4015 44.7549L43.9496 43.4726C43.9278 43.4529 43.9257 43.4185 43.9465 43.3967C44.3972 42.9044 44.8228 42.3923 45.2225 41.8626C45.2516 41.8241 45.3057 41.8168 45.3443 41.8449L46.8773 42.9533Z" fill="#353636"/>
<path d="M20.5749 43.1478C20.5655 43.1364 20.5676 43.1208 20.579 43.1124L21.6406 42.2673C21.9685 42.0072 22.264 41.8333 22.3015 41.8802L23.5535 43.4559C23.591 43.5027 23.3558 43.7515 23.028 44.0117L21.9664 44.8568C21.956 44.8651 21.9403 44.8641 21.931 44.8526L20.5749 43.1478Z" fill="#353636"/>
<path d="M50.4816 43.5008L49.3639 45.2378C49.3337 45.2857 49.2692 45.2972 49.2234 45.2638L47.7559 44.1908C47.7132 44.1606 47.7028 44.1013 47.7319 44.0576L48.7696 42.5142C48.7987 42.4725 48.8549 42.459 48.8997 42.484L50.4483 43.3624C50.4962 43.3905 50.5118 43.4529 50.4816 43.5008Z" fill="#52A7E7"/>
<path d="M17.023 44.0387C16.9804 43.9763 16.996 43.8909 17.0584 43.8483L17.6964 43.4111C18.2636 43.0229 18.7642 42.768 18.8142 42.8418L19.8654 44.377C19.9153 44.4509 19.4969 44.8245 18.9308 45.2127L18.2928 45.6498C18.2293 45.6925 18.144 45.6769 18.1013 45.6134L17.023 44.0387Z" fill="#353636"/>
<path d="M13.6914 43.593L14.4324 42.905C14.4657 42.8749 14.5198 42.8873 14.5365 42.93L14.9216 43.9354C14.9403 43.9843 14.8945 44.0343 14.8435 44.0197L13.7174 43.7023C13.6695 43.6887 13.6539 43.6273 13.6914 43.593Z" fill="#E8E6E7"/>
<path d="M11.9329 43.3453L11.5635 42.9847C11.5359 42.9578 11.4917 42.9584 11.4648 42.9859L11.068 43.3926C11.0411 43.4202 11.0416 43.4643 11.0692 43.4912L11.4386 43.8518C11.4662 43.8787 11.5103 43.8781 11.5372 43.8506L11.9341 43.4439C11.961 43.4163 11.9605 43.3722 11.9329 43.3453Z" fill="#E8E6E7"/>
<path d="M53.5509 44.2177L52.6246 45.7092C52.5975 45.7539 52.5382 45.7674 52.4945 45.7393L51.2216 44.9223C51.179 44.8953 51.1654 44.8391 51.1915 44.7954L52.0137 43.4039C52.0386 43.3602 52.0928 43.3445 52.1375 43.3674L53.5144 44.0856C53.5623 44.1105 53.579 44.1719 53.5509 44.2177Z" fill="#52A7E7"/>
<path d="M56.5866 44.151L56.2338 43.7732C56.2036 43.741 56.2057 43.69 56.239 43.6598L56.5752 43.3611C56.6064 43.334 56.6532 43.3351 56.6834 43.3642L57.005 43.6785C57.0342 43.7077 57.0362 43.7545 57.0102 43.7857L56.7053 44.1479C56.6751 44.1843 56.6199 44.1864 56.5866 44.151Z" fill="#E8E6E7"/>
<path d="M60.1979 43.9134L59.8593 43.6303C59.8157 43.5938 59.7507 43.5996 59.7142 43.6433L59.4592 43.9483C59.4227 43.9919 59.4285 44.0569 59.4721 44.0934L59.8106 44.3765C59.8543 44.413 59.9193 44.4072 59.9558 44.3635L60.2108 44.0585C60.2473 44.0148 60.2415 43.9499 60.1979 43.9134Z" fill="#E8E6E7"/>
<path d="M63.489 45.6207C63.2465 45.576 63.0102 45.5687 62.7802 45.5968C62.699 45.6061 62.6449 45.5166 62.6907 45.449L63.2048 44.6986C63.235 44.6549 63.3037 44.6663 63.3172 44.7184L63.5431 45.5624C63.5525 45.5957 63.5233 45.627 63.489 45.6207Z" fill="#52A7E7"/>
<path d="M25.7073 47.7241C25.6719 47.7792 25.6272 47.7876 25.5741 47.7501L23.9505 46.6094C23.835 46.5282 23.8193 46.4304 23.9026 46.3159L24.9923 44.8318C25.01 44.8079 25.0454 44.8027 25.0683 44.8214C25.5772 45.221 26.1163 45.5936 26.6856 45.9392C26.7512 45.9787 26.771 46.0651 26.7293 46.1296L25.7073 47.7241Z" fill="#353636"/>
<path d="M42.3344 44.8743C42.376 44.8462 42.4114 44.8514 42.4416 44.892L43.5407 46.3855C43.5917 46.4552 43.5823 46.5156 43.5146 46.5687C43.0036 46.9673 42.4104 47.3659 41.737 47.7656C41.6943 47.7905 41.6392 47.777 41.6142 47.7343L40.6546 46.1232C40.6307 46.0837 40.6421 46.0327 40.6796 46.0067L42.3344 44.8743Z" fill="#353636"/>
<path d="M8.93953 46.0671L7.86442 45.6383C7.81342 45.6174 7.80926 45.5467 7.85818 45.5207L8.92808 44.9586C8.97075 44.9368 9.02175 44.967 9.02279 45.0159L9.02799 46.0067C9.02904 46.0525 8.9822 46.0837 8.93953 46.0671Z" fill="#E8E6E7"/>
<path d="M4.92227 46.5771C4.81924 46.5334 4.71932 46.4866 4.62045 46.4356C4.58611 46.4189 4.58923 46.369 4.62462 46.3565C4.80675 46.2888 5.08255 46.2014 5.19183 46.0338C5.30007 45.8663 5.28966 45.5582 5.3136 45.3594C5.32089 45.2939 5.34378 45.2886 5.38229 45.3417C5.62583 45.6852 5.93286 45.8923 6.30233 45.9631C6.34604 45.9714 6.35437 46.0297 6.31586 46.0494C5.76529 46.3367 5.70805 46.5417 5.77258 47.1527C5.78715 47.2932 5.75176 47.3067 5.66746 47.1932C5.45306 46.9039 5.20432 46.6989 4.92227 46.5771Z" fill="#E8E6E7"/>
<path d="M47.9962 46.831L46.7036 48.0913C46.6463 48.1465 46.5558 48.1434 46.5027 48.0851L45.3506 46.8133C45.2996 46.7571 45.3027 46.6707 45.3579 46.6187L46.562 45.4811C46.6151 45.4311 46.6984 45.4301 46.7525 45.4801L47.9931 46.6291C48.0524 46.6832 48.0535 46.7758 47.9962 46.831Z" fill="#52A7E7"/>
<path d="M21.1475 45.8621L22.4329 47.084C22.4839 47.1318 22.488 47.2109 22.4422 47.264L21.2558 48.6493C21.2079 48.7055 21.1236 48.7107 21.0684 48.6618L19.5853 47.34C19.5281 47.289 19.5271 47.1985 19.5833 47.1464L20.9675 45.8611C21.0185 45.8132 21.0976 45.8142 21.1475 45.8621Z" fill="#353636"/>
<path d="M16.8097 48.4932L15.6627 47.1662C15.6284 47.1267 15.6336 47.0674 15.6742 47.0351L16.894 46.0547C16.9335 46.0224 16.9908 46.0287 17.022 46.0672L18.0648 47.3338C18.095 47.3713 18.0919 47.4264 18.0565 47.4587L16.9418 48.5005C16.9033 48.5359 16.844 48.5328 16.8097 48.4932Z" fill="#909193"/>
<path d="M54.4344 46.3565L54.7644 46.8592C54.7789 46.881 54.7748 46.9091 54.755 46.9247L54.3304 47.2765C54.3085 47.2942 54.2763 47.2911 54.2596 47.2682L53.8985 46.8123C53.8818 46.7915 53.8849 46.7613 53.9047 46.7436L54.3606 46.3461C54.3824 46.3263 54.4178 46.3315 54.4344 46.3565Z" fill="#E8E6E7"/>
<path d="M12.6195 46.8214L12.3021 47.22C12.274 47.2554 12.2219 47.2595 12.1866 47.2304L11.8129 46.9098C11.7796 46.8807 11.7755 46.8297 11.8056 46.7953L12.1522 46.4051C12.1824 46.3718 12.2334 46.3697 12.2667 46.3988L12.6112 46.7121C12.6424 46.7412 12.6455 46.7891 12.6195 46.8214Z" fill="#E8E6E7"/>
<path d="M51.1321 47.9312L49.928 49.2436C49.8926 49.2831 49.8312 49.2841 49.7937 49.2467L48.6999 48.1643C48.6634 48.1289 48.6624 48.0717 48.6968 48.0342L49.8104 46.8394C49.8437 46.803 49.8999 46.7988 49.9373 46.83L51.1228 47.7958C51.1644 47.8292 51.1686 47.8916 51.1321 47.9312Z" fill="#909193"/>
<path d="M29.9296 49.4975L27.9563 48.8699C27.8845 48.847 27.846 48.77 27.8699 48.6982L28.4746 46.9497C28.4985 46.882 28.5714 46.8446 28.6411 46.8654L30.4552 47.4139C30.5238 47.4336 30.5634 47.5044 30.5467 47.5741L30.1013 49.4017C30.0826 49.4766 30.0045 49.5214 29.9296 49.4975Z" fill="#353636"/>
<path d="M36.8141 47.5002L38.7187 46.9163C38.7749 46.8986 38.8353 46.9299 38.854 46.9871L39.44 48.7574C39.4587 48.8147 39.4275 48.8771 39.3703 48.8958L37.3325 49.564C37.2721 49.5838 37.2076 49.5474 37.1919 49.486L36.7392 47.6303C36.7257 47.5741 36.759 47.5168 36.8141 47.5002Z" fill="#353636"/>
<path d="M55.6936 47.182L56.905 47.107C56.9363 47.1049 56.956 47.1414 56.9352 47.1663L56.2452 48.0104C56.2296 48.0291 56.2004 48.0281 56.1869 48.0073L55.6655 47.2392C55.6499 47.2153 55.6655 47.184 55.6936 47.182Z" fill="#52A7E7"/>
<path d="M61.3931 49.2277C61.2692 49.465 61.2109 49.4504 61.2182 49.1829C61.2245 48.905 61.1297 48.6355 60.9351 48.3763C60.8945 48.3222 60.9174 48.2452 60.9799 48.2202C61.2869 48.1005 61.5804 47.9423 61.8614 47.7456C61.8968 47.7206 61.9467 47.7415 61.954 47.7841L62.1663 48.9602C62.1747 49.0039 62.1258 49.0362 62.0883 49.0122C61.7979 48.8218 61.5669 48.8936 61.3931 49.2277Z" fill="#52A7E7"/>
<path d="M34.7889 49.8316C34.791 49.8837 34.7515 49.9274 34.6994 49.9305C34.0521 49.9721 33.3298 49.9534 32.5336 49.8743C32.4691 49.8681 32.4222 49.8119 32.4264 49.7473L32.5575 47.8761C32.5596 47.8396 32.5908 47.8115 32.6273 47.8115L34.688 47.8219C34.715 47.8219 34.7359 47.8427 34.7369 47.8698L34.7889 49.8316Z" fill="#353636"/>
<path d="M8.81977 49.768C9.02272 49.4641 8.71257 49.3548 8.52315 49.2341C8.46487 49.1976 8.45446 49.1175 8.50025 49.0676C8.63035 48.9239 8.7771 48.7897 8.9405 48.6648C9.16426 48.492 9.20797 48.237 9.20693 47.9706C9.20693 47.9092 9.22567 47.904 9.26209 47.9529C9.3516 48.0715 9.41821 48.2162 9.53582 48.3109C9.70858 48.4493 9.91882 48.5316 10.1665 48.5586C10.2009 48.5628 10.2196 48.6002 10.2009 48.6294C10.1009 48.7824 10.0073 48.9427 9.91986 49.1102C9.82307 49.2955 9.87823 49.5297 9.87927 49.7326C9.88031 49.8752 9.8366 49.8898 9.74917 49.7784C9.64718 49.6473 9.51812 49.5588 9.36097 49.513C9.32038 49.5015 9.28083 49.5068 9.2444 49.5286C9.10182 49.615 8.9738 49.7212 8.8614 49.8471C8.85828 49.8502 8.85516 49.8512 8.85203 49.8481L8.82914 49.8304C8.80728 49.8127 8.80416 49.7919 8.81977 49.768Z" fill="#E8E6E7"/>
<path d="M24.522 50.9274L22.9005 49.9762C22.8433 49.9418 22.8245 49.8669 22.861 49.8097L23.8081 48.3078C23.8424 48.2537 23.9132 48.2371 23.9683 48.2693L25.4639 49.1467C25.518 49.179 25.5378 49.2476 25.5087 49.3038L24.6865 50.8806C24.6553 50.9399 24.5803 50.9618 24.522 50.9274Z" fill="#52A7E7"/>
<path d="M14.6707 48.4007C14.7904 48.7337 14.9049 49.0866 14.9809 49.4269C15.0152 49.583 14.9653 49.6184 14.8289 49.533C14.5531 49.3592 14.2346 49.2781 13.8735 49.2895C13.8215 49.2916 13.7819 49.2718 13.7549 49.2302C13.7299 49.1917 13.7392 49.1396 13.7778 49.1126C14.066 48.9117 14.3158 48.6671 14.525 48.3788C14.5646 48.3247 14.6478 48.3372 14.6707 48.4007Z" fill="#E8E6E7"/>
<path d="M51.6461 48.4754C51.6658 48.4359 51.6898 48.4005 51.7189 48.3693C51.7637 48.3214 51.8063 48.3235 51.8469 48.3765L52.3777 49.0707C52.4391 49.1509 52.4194 49.1956 52.3194 49.206C51.9833 49.2414 51.6273 49.3195 51.2506 49.4412C51.2006 49.4569 51.1871 49.4412 51.2089 49.3934C51.3515 49.0884 51.4972 48.7824 51.6461 48.4754Z" fill="#E8E6E7"/>
<path d="M44.1266 50.1082L42.4343 51.1C42.3833 51.1291 42.3188 51.1115 42.2907 51.0594L41.4425 49.4993C41.4154 49.4504 41.4331 49.3879 41.482 49.3598L43.014 48.4658C43.0609 48.4377 43.1212 48.4513 43.1525 48.496L44.1599 49.9593C44.1943 50.0093 44.1786 50.078 44.1266 50.1082Z" fill="#52A7E7"/>
<path d="M7.79356 49.7463L6.4822 49.8421C6.45514 49.8442 6.43744 49.8129 6.45201 49.79L7.17847 48.6952C7.19304 48.6743 7.22322 48.6754 7.23571 48.6972L7.81958 49.6964C7.83206 49.7172 7.81749 49.7443 7.79356 49.7463Z" fill="#52A7E7"/>
<path d="M56.3558 49.3872C56.6347 49.2675 56.6898 49.1031 56.7606 48.8283C56.7741 48.7784 56.822 48.7461 56.873 48.7523C57.2508 48.7992 57.6099 48.795 57.9523 48.7409C58.0532 48.7253 58.0689 48.7544 58.0002 48.8294L57.6692 49.1884C57.6005 49.2623 57.5745 49.3664 57.5984 49.4642L57.7181 49.9503C57.7275 49.9888 57.714 50.0023 57.6754 49.9909L57.1967 49.842C57.1623 49.8316 57.1311 49.8368 57.103 49.8587L56.8678 50.0418C56.8262 50.0741 56.7658 50.0575 56.7471 50.0075C56.6784 49.8233 56.5462 49.6838 56.3506 49.5891C56.2652 49.5475 56.2683 49.4247 56.3558 49.3872Z" fill="#E8E6E7"/>
<path d="M19.9735 51.4793L18.5934 50.3906C18.5601 50.3636 18.556 50.3147 18.5841 50.2834L19.6436 49.1001C19.6706 49.0699 19.7154 49.0668 19.7466 49.0928L20.982 50.1398C21.0122 50.1648 21.0163 50.2085 20.9934 50.2397L20.0786 51.4657C20.0536 51.4991 20.0057 51.5053 19.9735 51.4793Z" fill="#909193"/>
<path d="M16.843 50.3707L15.5441 50.8151C15.5098 50.8265 15.4807 50.7891 15.5004 50.7589L16.3206 49.5474C16.3362 49.5245 16.3695 49.5256 16.383 49.5485L16.8628 50.3155C16.8753 50.3353 16.8659 50.3623 16.843 50.3707Z" fill="#E8E6E7"/>
<path d="M45.6075 50.6809L46.9262 49.6505C46.9584 49.6245 47.0053 49.6308 47.0313 49.662L48.0262 50.8942C48.0533 50.9275 48.0471 50.9754 48.0127 51.0014L46.5952 52.0682C46.5619 52.0942 46.514 52.087 46.489 52.0516L45.5929 50.7829C45.569 50.7506 45.5763 50.7048 45.6075 50.6809Z" fill="#909193"/>
<path d="M28.5113 52.5388L26.6442 51.9382C26.6004 51.9237 26.5775 51.8768 26.5942 51.8331L27.2374 50.1252C27.253 50.0846 27.2967 50.0638 27.3373 50.0774L29.0452 50.6373C29.0858 50.6508 29.1087 50.6935 29.0972 50.7351L28.6122 52.4846C28.6008 52.5284 28.554 52.5533 28.5113 52.5388Z" fill="#52A7E7"/>
<path d="M38.1363 50.6652L39.7505 50.1615C39.814 50.1417 39.8827 50.175 39.9066 50.2364L40.5404 51.8746C40.5675 51.9432 40.5311 52.0192 40.4614 52.0421L38.6577 52.6229C38.588 52.6458 38.5141 52.6052 38.4964 52.5344L38.0509 50.8182C38.0343 50.7526 38.0718 50.686 38.1363 50.6652Z" fill="#52A7E7"/>
<path d="M60.1171 50.2397L60.1816 51.1129C60.1847 51.1524 60.1535 51.1857 60.114 51.1868L59.2657 51.1961C59.2064 51.1972 59.1742 51.1264 59.2137 51.0816L59.9974 50.1991C60.038 50.1533 60.1129 50.1793 60.1171 50.2397Z" fill="#52A7E7"/>
<path d="M32.4962 53.2231L30.5333 53.0129C30.4802 53.0077 30.4428 52.9588 30.4511 52.9057L30.7259 51.0427C30.7332 50.9927 30.7789 50.9574 30.8299 50.9636L32.6659 51.1728C32.7158 51.179 32.7522 51.2228 32.7481 51.2738L32.5992 53.1378C32.5951 53.1898 32.5482 53.2293 32.4962 53.2231Z" fill="#52A7E7"/>
<path d="M34.4943 51.1815L36.301 51.0004C36.3468 50.9962 36.3874 51.0285 36.3937 51.0732L36.6278 52.9279C36.633 52.9747 36.5997 53.0174 36.5529 53.0226L34.6171 53.2245C34.5692 53.2297 34.5265 53.1932 34.5234 53.1454L34.4183 51.2699C34.4162 51.2252 34.4495 51.1867 34.4943 51.1815Z" fill="#52A7E7"/>
<path d="M54.6147 51.5759C55.0383 51.4353 55.4535 51.2553 55.8584 51.0367C55.9188 51.0045 55.9396 51.0201 55.9198 51.0857C55.8334 51.3687 55.6638 51.5321 55.823 51.8517C55.9136 52.0307 56.0166 52.1941 56.1332 52.3419C56.155 52.37 56.1373 52.4116 56.1009 52.4147L55.0247 52.499C54.9779 52.5032 54.9342 52.4782 54.9134 52.4366L54.5397 51.6966C54.5231 51.6643 54.5325 51.6258 54.5606 51.605C54.5772 51.5925 54.5949 51.5831 54.6147 51.5759Z" fill="#E8E6E7"/>
<path d="M23.576 53.8458L21.9982 52.9674C21.9576 52.9456 21.9441 52.8946 21.968 52.855L22.785 51.5135C22.8079 51.476 22.8568 51.4635 22.8953 51.4854L24.3451 52.3159C24.3826 52.3377 24.3971 52.3846 24.3774 52.4231L23.6873 53.8115C23.6676 53.8531 23.6155 53.8687 23.576 53.8458Z" fill="#909193"/>
<path d="M50.4815 52.7641L49.4231 52.3155C49.396 52.3051 49.3929 52.2687 49.4158 52.252L50.3608 51.5974C50.3837 51.5807 50.4149 51.5953 50.4181 51.6234L50.5315 52.7276C50.5346 52.7547 50.5065 52.7755 50.4815 52.7641Z" fill="#52A7E7"/>
<path d="M57.952 51.8777C57.928 52.4907 57.9551 52.9903 58.31 53.5138C58.3339 53.5481 58.3318 53.5825 58.3058 53.6158C58.106 53.8697 57.876 54.08 57.6158 54.2454C57.5658 54.2777 57.5398 54.2642 57.5367 54.2048C57.5284 53.9842 57.4951 53.698 57.1724 53.8135C57.0465 53.8583 56.9279 53.9218 56.8175 54.005C56.778 54.0352 56.7218 54.0196 56.702 53.9748C56.6895 53.9457 56.6906 53.9176 56.7051 53.8895C56.8716 53.5617 57.0933 53.3223 57.3691 53.1703C57.6189 53.0329 57.8708 52.1379 57.9239 51.8735C57.9468 51.7591 57.9561 51.7601 57.952 51.8777Z" fill="#52A7E7"/>
<path d="M8.67526 51.8984L9.59113 52.2512C9.62548 52.2647 9.63381 52.3074 9.60779 52.3324L8.85427 53.0443C8.82617 53.0713 8.7783 53.0557 8.77205 53.0162L8.60865 51.9515C8.60345 51.914 8.63987 51.8849 8.67526 51.8984Z" fill="#52A7E7"/>
<path d="M42.1193 52.7238L43.5972 51.9495C43.6409 51.9266 43.6951 51.9422 43.72 51.9849L44.5121 53.34C44.5391 53.3858 44.5214 53.4451 44.4735 53.469L42.799 54.3006C42.7511 54.3245 42.6928 54.3027 42.672 54.2538L42.0777 52.8414C42.059 52.7977 42.0777 52.7457 42.1193 52.7238Z" fill="#909193"/>
<path d="M18.5561 52.6436L19.5157 52.0639C19.5615 52.0368 19.6198 52.0732 19.6135 52.1263L19.4782 53.3086C19.473 53.3575 19.4158 53.3825 19.3762 53.3534L18.5509 52.7508C18.5134 52.7237 18.5166 52.6675 18.5561 52.6436Z" fill="#E8E6E7"/>
<path d="M27.6835 55.4872L25.8903 54.8763C25.8664 54.868 25.8539 54.842 25.8622 54.818L26.4003 53.2943C26.4086 53.2714 26.4336 53.259 26.4575 53.2662L28.1092 53.7981C28.1321 53.8054 28.1456 53.8293 28.1394 53.8532L27.7429 55.455C27.7356 55.481 27.7085 55.4956 27.6835 55.4872Z" fill="#909193"/>
<path d="M47.3967 53.9333C47.3582 53.9115 47.3551 53.8854 47.3884 53.8553C47.6215 53.6461 47.8703 53.4702 48.1346 53.3286C48.1804 53.3047 48.2377 53.3318 48.2481 53.3828C48.3012 53.644 48.3293 53.9 48.3303 54.1529C48.3313 54.258 48.2804 54.2965 48.1794 54.2674C47.9078 54.1893 47.6465 54.078 47.3967 53.9333Z" fill="#E8E6E7"/>
<path d="M9.63574 53.6189C10.0177 53.6428 10.2519 53.5107 10.5631 53.3431C10.6036 53.3223 10.6536 53.3431 10.6651 53.3868C10.7754 53.7833 10.8513 54.1871 10.8919 54.5972C10.8982 54.6534 10.8482 54.6992 10.7931 54.6898C10.3341 54.6159 9.94692 54.6992 9.63157 54.9396C9.5941 54.9677 9.55143 54.9833 9.5046 54.9844C9.45985 54.9854 9.42967 54.9396 9.4484 54.899C9.63678 54.4869 9.67528 54.0904 9.56392 53.7084C9.55039 53.6616 9.58682 53.6158 9.63574 53.6189Z" fill="#52A7E7"/>
<path d="M38.2608 54.0634L39.8823 53.6002C39.9218 53.5888 39.9635 53.6106 39.976 53.6491L40.4901 55.1978C40.5036 55.2384 40.4807 55.2831 40.4391 55.2956L38.6646 55.8222C38.6219 55.8358 38.5772 55.8087 38.5678 55.766L38.2067 54.1539C38.1983 54.1143 38.2212 54.0748 38.2608 54.0634Z" fill="#909193"/>
<path d="M20.0237 54.7855C19.98 54.7543 19.9238 54.7459 19.8728 54.7626L18.9288 55.0811C18.8757 55.0988 18.8632 55.0831 18.8903 55.0342C19.1203 54.6158 19.4003 54.2464 19.7302 53.9248C19.7625 53.8936 19.8155 53.9008 19.8374 53.9393L20.2662 54.6804C20.3214 54.7751 20.2943 54.8302 20.1871 54.8479C20.1455 54.8552 20.0914 54.8344 20.0237 54.7855Z" fill="#E8E6E7"/>
<path d="M15.2278 54.7981L15.4359 54.3235C15.4797 54.2247 15.5234 54.2247 15.566 54.3246C15.692 54.617 15.9012 54.8169 16.1926 54.923C16.3081 54.9646 16.3112 55.0125 16.1999 55.0656C15.7013 55.3029 15.2632 55.5891 14.8843 55.9253C14.8625 55.944 14.8292 55.9378 14.8167 55.9117L14.3765 55.0104C14.3494 54.9553 14.3619 54.8887 14.4077 54.8481L14.6356 54.6431C14.6658 54.616 14.696 54.6149 14.7282 54.6389C14.7688 54.6691 14.7959 54.7076 14.8115 54.7554C14.825 54.8012 14.8552 54.8314 14.9 54.847C14.9759 54.8731 15.0529 54.8803 15.1331 54.8689C15.1778 54.8627 15.2101 54.8387 15.2278 54.7981Z" fill="#52A7E7"/>
<path d="M31.8789 56.3091L30.0638 56.0937C30.0159 56.0874 29.9816 56.0437 29.9889 55.9959L30.2106 54.3816C30.2168 54.3348 30.2595 54.3015 30.3063 54.3067L32.0101 54.5055C32.0558 54.5107 32.0902 54.5513 32.0871 54.5971L31.9757 56.229C31.9726 56.2779 31.9278 56.3143 31.8789 56.3091Z" fill="#909193"/>
<path d="M44.1275 55.0676L43.322 54.9282C43.3043 54.925 43.2928 54.9105 43.2928 54.8928L43.3157 54.4244C43.3157 54.4078 43.3293 54.3942 43.3459 54.3922L44.1026 54.3151C44.1223 54.3131 44.14 54.3276 44.14 54.3474L44.1671 55.0322C44.1681 55.0541 44.1484 55.0718 44.1275 55.0676Z" fill="#E8E6E7"/>
<path d="M55.5616 55.7161C55.4669 55.7328 55.3857 55.7942 55.3441 55.8816L54.9933 56.6122C54.9257 56.7548 54.8934 56.7475 54.8986 56.5893C54.9184 55.9971 54.7779 55.636 54.4823 55.1406C54.4594 55.102 54.4677 55.0729 54.5073 55.0521C54.8747 54.8616 55.24 54.6399 55.6053 54.385C55.6615 54.3454 55.7396 54.3693 55.7656 54.4339C55.9196 54.821 56.0414 55.2259 56.1319 55.6495C56.1465 55.7192 56.1194 55.7463 56.0497 55.7307C55.878 55.6922 55.7156 55.688 55.5616 55.7161Z" fill="#52A7E7"/>
<path d="M34.3374 54.5317L36.0276 54.4162C36.0807 54.4131 36.1265 54.4516 36.1317 54.5047L36.2847 56.1012C36.2899 56.1564 36.2493 56.2042 36.1941 56.2084L34.3821 56.3426C34.3259 56.3468 34.2781 56.3031 34.277 56.2469L34.2468 54.6306C34.2458 54.5786 34.2854 54.5348 34.3374 54.5317Z" fill="#909193"/>
<path d="M23.9222 55.7619L23.4205 55.4768C23.3695 55.4476 23.357 55.38 23.3935 55.3352L23.7244 54.9324C23.7577 54.8918 23.8181 54.8856 23.8577 54.9189L24.1793 55.1843C24.2094 55.2103 24.2209 55.2519 24.2084 55.2894L24.0575 55.712C24.0377 55.7671 23.9732 55.7911 23.9222 55.7619Z" fill="#E8E6E7"/>
<path d="M50.2846 56.94C50.2107 56.584 50.0837 56.2947 49.7674 56.0814C49.7091 56.0418 49.7091 55.9565 49.7663 55.9169L50.7915 55.2102C50.8196 55.1915 50.857 55.2029 50.8695 55.2342C51.0215 55.6193 51.2515 56.1271 51.2785 56.533C51.2817 56.5768 51.264 56.5872 51.2265 56.5643C50.6926 56.2375 50.5698 56.5382 50.3543 56.9493C50.3221 57.0107 50.2981 57.0076 50.2846 56.94Z" fill="#E8E6E7"/>
<path d="M45.211 56.2958C45.4161 56.0159 45.6773 55.7671 45.926 55.5184C45.9573 55.4872 46.0103 55.508 46.0124 55.5517L46.0624 56.478C46.0645 56.5217 46.0436 56.5414 45.9999 56.5373L45.287 56.4655C45.2048 56.4582 45.1621 56.3624 45.211 56.2958Z" fill="#52A7E7"/>
<path d="M15.438 56.6847L16.3112 56.0769C16.3341 56.0613 16.3664 56.0748 16.3695 56.1029L16.5059 57.1583C16.51 57.1874 16.4798 57.2092 16.4538 57.1968L15.4443 56.7492C15.4172 56.7378 15.4141 56.7014 15.438 56.6847Z" fill="#52A7E7"/>
<path d="M26.5919 57.0879C26.5638 57.1056 26.5284 57.0817 26.5347 57.0494L26.6752 56.3521C26.6835 56.3094 26.7095 56.2886 26.7532 56.2907L27.1758 56.3136C27.2538 56.3177 27.2934 56.3583 27.2944 56.4364L27.3007 56.9984C27.3017 57.0546 27.2757 57.0712 27.2247 57.0473C27.0009 56.9432 26.7896 56.9568 26.5919 57.0879Z" fill="#E8E6E7"/>
<path d="M23.7362 56.7349C23.9704 57.0013 24.064 57.1751 24.4678 57.1158C24.5116 57.1095 24.5438 57.1564 24.522 57.1949L24.2139 57.7319C24.1639 57.8183 24.0921 57.8433 23.9995 57.8079C23.7632 57.7173 23.5135 57.6518 23.2522 57.6091C23.1273 57.5883 23.1096 57.5342 23.2002 57.4468C23.3823 57.2688 23.5103 57.044 23.5842 56.7703C23.6019 56.7016 23.6894 56.6818 23.7362 56.7349Z" fill="#E8E6E7"/>
<path d="M36.9028 57.7987L36.0889 57.6603C36.0504 57.6541 36.0223 57.6197 36.0233 57.5802L36.0452 56.8901C36.0462 56.8454 36.0848 56.811 36.1295 56.8142L36.9309 56.8756C36.9725 56.8787 37.0048 56.913 37.0037 56.9547L36.9954 57.7217C36.9944 57.7706 36.9507 57.8071 36.9028 57.7987Z" fill="#E8E6E7"/>
<path d="M31.2845 57.267C31.2814 57.2556 31.2908 57.2441 31.3022 57.2441L32.0381 57.2826C32.1088 57.2858 32.1505 57.3628 32.1161 57.4242C31.9631 57.6927 31.7976 57.9248 31.6218 58.1215C31.5832 58.1642 31.5114 58.1465 31.4969 58.0903L31.2845 57.267Z" fill="#E8E6E7"/>
<path d="M41.4989 57.4267L40.8302 57.4711C40.809 57.4725 40.7929 57.4908 40.7943 57.5121L40.8373 58.1601C40.8388 58.1813 40.8571 58.1973 40.8783 58.1959L41.5471 58.1515C41.5683 58.1501 41.5844 58.1318 41.583 58.1105L41.5399 57.4625C41.5385 57.4413 41.5202 57.4253 41.4989 57.4267Z" fill="#E8E6E7"/>
<path d="M14.1474 57.6156C14.1932 57.5323 14.2494 57.524 14.3171 57.5917C14.5263 57.7988 14.774 57.9549 15.0591 58.0621C15.1018 58.0777 15.1091 58.1048 15.0831 58.1422C14.9124 58.3795 14.7792 58.6262 14.6834 58.8832C14.6688 58.9218 14.6449 58.929 14.6126 58.9041L13.9039 58.3514C13.8279 58.2921 13.8133 58.2203 13.8602 58.136L14.1474 57.6156Z" fill="#E8E6E7"/>
<path d="M47.4807 57.9852L46.8149 58.0622C46.7995 58.064 46.7884 58.0779 46.7902 58.0933L46.8613 58.7075C46.8631 58.7229 46.877 58.7339 46.8924 58.7321L47.5582 58.6551C47.5736 58.6533 47.5847 58.6394 47.5829 58.624L47.5119 58.0098C47.5101 57.9944 47.4961 57.9834 47.4807 57.9852Z" fill="#E8E6E7"/>
<path d="M28.4332 58.9974L27.7556 59.0713C27.7369 59.0733 27.7203 59.0598 27.7182 59.0411L27.6599 58.4093C27.6578 58.3906 27.6703 58.375 27.689 58.3719L28.3739 58.2636C28.3936 58.2605 28.4113 58.274 28.4134 58.2949L28.4644 58.9609C28.4654 58.9797 28.4519 58.9963 28.4332 58.9974Z" fill="#E8E6E7"/>
<path d="M38.0287 59.4929L37.2137 58.9881C37.1763 58.9642 37.1773 58.909 37.2158 58.8861L38.0453 58.4074C38.0859 58.3845 38.1348 58.4136 38.1348 58.4594L38.1192 59.444C38.1182 59.4898 38.0672 59.5179 38.0287 59.4929Z" fill="#E8E6E7"/>
<path d="M19.8633 59.4981C19.8498 59.6397 19.8394 59.7833 19.8342 59.929C19.8321 59.9915 19.8092 60.0008 19.7655 59.9561L18.9131 59.0922C18.8861 59.0652 18.8861 59.0225 18.9121 58.9954L19.3659 58.5209C19.3908 58.4948 19.4189 58.4907 19.4491 58.5104C19.5209 58.5552 19.5782 58.626 19.6552 58.6645C19.7853 58.73 19.9216 58.7769 20.0621 58.805C20.1277 58.8185 20.1568 58.8945 20.1183 58.9486C19.9976 59.1172 19.8821 59.29 19.8633 59.4981Z" fill="#52A7E7"/>
<path d="M44.6824 60.1706C44.5845 60.0592 44.5086 59.9353 44.4534 59.799C44.4295 59.7386 44.4471 59.7189 44.5085 59.7386C44.623 59.7761 44.7375 59.7844 44.851 59.7636C44.8999 59.7543 44.9405 59.7303 44.9727 59.6918C45.1403 59.4889 45.2621 59.2131 45.336 58.8644C45.3578 58.7593 45.3901 58.7572 45.4307 58.8561C45.5493 59.1454 45.6118 59.4972 45.8085 59.7543C45.8293 59.7813 45.8324 59.8188 45.8168 59.849L45.3661 60.693C45.3401 60.7419 45.2777 60.7607 45.2288 60.7347C44.9863 60.6046 44.749 60.7565 44.5252 60.8481C44.4763 60.8679 44.4628 60.8543 44.4836 60.8054L44.7021 60.2902C44.7209 60.2465 44.7146 60.207 44.6824 60.1706Z" fill="#E8E6E7"/>
<path d="M17.3167 59.6335L17.3022 59.9395C17.298 60.0176 17.2033 60.054 17.1481 59.9978L16.9743 59.8188C16.9483 59.7928 16.9181 59.7834 16.8827 59.7896C16.7776 59.8084 16.6829 59.8573 16.5976 59.9364C16.5809 59.952 16.5622 59.9614 16.5403 59.9645C16.4977 59.9718 16.4831 59.9551 16.4956 59.9135L16.5872 59.6138C16.5997 59.5752 16.5913 59.5409 16.5612 59.5118C16.4706 59.4243 16.4259 59.313 16.4269 59.1766C16.4279 59.1194 16.456 59.0975 16.5112 59.1131C16.8068 59.1912 17.0368 59.2838 17.1679 58.906C17.1783 58.8758 17.1991 58.855 17.2293 58.8446C17.2376 58.8415 17.247 58.8415 17.2564 58.8446C17.2689 58.8477 17.2772 58.8561 17.2803 58.8686L17.3792 59.2016C17.3906 59.2412 17.4146 59.2703 17.451 59.288L17.553 59.3369C17.6904 59.4046 17.6852 59.4576 17.5374 59.4961L17.4 59.5315C17.3469 59.5451 17.3199 59.5794 17.3167 59.6335Z" fill="#E8E6E7"/>
<path d="M32.8437 59.4712L33.5056 59.5087C33.5243 59.5098 33.5389 59.5254 33.54 59.5441L33.5514 60.1519C33.5524 60.1717 33.5347 60.1894 33.515 60.1883L32.8468 60.1769C32.827 60.1758 32.8114 60.1602 32.8114 60.1405L32.8052 59.5077C32.8052 59.4869 32.8229 59.4702 32.8437 59.4712Z" fill="#E8E6E7"/>
<path d="M49.3451 59.8287L48.6399 59.8879C48.625 59.8891 48.6139 59.9022 48.6152 59.9171L48.6707 60.5788C48.672 60.5937 48.6851 60.6047 48.7 60.6035L49.4052 60.5443C49.4201 60.543 49.4312 60.5299 49.4299 60.515L49.3743 59.8534C49.3731 59.8385 49.36 59.8274 49.3451 59.8287Z" fill="#E8E6E7"/>
<path d="M41.2728 61.0395C41.3332 61.4777 41.4008 61.9409 41.6058 62.3291C41.6235 62.3634 41.5913 62.403 41.5538 62.3915C41.3384 62.327 40.9387 62.1834 40.7129 62.2354C40.6692 62.2458 40.6348 62.2697 40.6109 62.3072C40.5245 62.4425 40.4215 62.5497 40.3007 62.6278C40.2664 62.6507 40.2206 62.6246 40.2216 62.583C40.2331 62.1802 40.1862 61.7681 40.0822 61.3455C40.0613 61.2633 40.1144 61.1811 40.1977 61.1644L41.1781 60.9709C41.2228 60.9615 41.2666 60.9938 41.2728 61.0395Z" fill="#52A7E7"/>
<path d="M43.6224 61.9281L43.2973 61.8479C43.2421 61.8343 43.2025 61.7822 43.2056 61.7249L43.2119 61.5415C43.215 61.4707 43.2775 61.4165 43.3484 61.4259L43.6735 61.4655C43.736 61.4728 43.7829 61.5269 43.7808 61.5905L43.7735 61.8135C43.7704 61.8916 43.6974 61.9468 43.6224 61.9281Z" fill="#74787D"/>
<path d="M25.049 61.7698L24.8205 61.5468C24.7838 61.511 24.725 61.5117 24.6892 61.5484L24.5886 61.6514C24.5528 61.6882 24.5535 61.7469 24.5902 61.7828L24.8187 62.0058C24.8554 62.0416 24.9142 62.0409 24.95 62.0041L25.0506 61.9011C25.0864 61.8644 25.0857 61.8056 25.049 61.7698Z" fill="#74787D"/>
<path d="M38.2706 62.2001L37.6066 62.2082C37.5917 62.2083 37.5797 62.2206 37.5799 62.2356L37.5873 62.8433C37.5875 62.8583 37.5998 62.8702 37.6147 62.87L38.2787 62.8619C38.2936 62.8617 38.3056 62.8495 38.3054 62.8345L38.298 62.2268C38.2978 62.2118 38.2855 62.1999 38.2706 62.2001Z" fill="#E8E6E7"/>
<path d="M28.7817 63.0313L28.791 62.3704C28.791 62.3517 28.8056 62.3371 28.8243 62.3361L29.4467 62.3267C29.4654 62.3257 29.4811 62.3413 29.4821 62.36L29.4946 62.9928C29.4956 63.0115 29.4811 63.0271 29.4623 63.0282L28.8171 63.0657C28.7973 63.0667 28.7806 63.0511 28.7817 63.0313Z" fill="#E8E6E7"/>
<path d="M33.8345 62.6682L33.8626 63.3363C33.8626 63.3582 33.847 63.3748 33.8251 63.3759L33.1444 63.3925C33.1247 63.3936 33.108 63.378 33.1059 63.3582L33.0477 62.6661C33.0466 62.6442 33.0633 62.6255 33.0862 62.6255L33.798 62.6328C33.8178 62.6328 33.8345 62.6484 33.8345 62.6682Z" fill="#E8E6E7"/>
<path d="M23.2475 62.9416L22.5693 62.9617C22.548 62.9624 22.5313 62.9801 22.5319 63.0014L22.5509 63.6401C22.5515 63.6614 22.5692 63.6781 22.5905 63.6775L23.2688 63.6573C23.29 63.6567 23.3068 63.639 23.3061 63.6177L23.2872 62.979C23.2865 62.9577 23.2688 62.941 23.2475 62.9416Z" fill="#E8E6E7"/>
<path d="M27.3588 64.3647C27.2131 64.3938 26.9311 64.476 26.7947 64.4105C26.7458 64.3876 26.7416 64.3574 26.7801 64.321L27.5347 63.607C27.644 63.5029 27.7148 63.5248 27.747 63.6726L27.9645 64.6738C28.0114 64.8913 27.9562 64.9225 27.797 64.7654C27.6867 64.6561 27.5836 64.5395 27.4879 64.4136C27.4577 64.374 27.4077 64.3553 27.3588 64.3647Z" fill="#E8E6E7"/>
<path d="M43.6198 64.5667L42.5749 64.6489C42.5582 64.65 42.5437 64.6395 42.5395 64.6239L42.3147 63.8205C42.3084 63.8007 42.323 63.7788 42.3449 63.7778L43.3679 63.6925C43.3836 63.6914 43.3981 63.7018 43.4033 63.7164L43.65 64.523C43.6562 64.5438 43.6417 64.5657 43.6198 64.5667Z" fill="#E8E6E7"/>
<path d="M40.2201 64.8446C40.2045 64.882 40.1847 64.9164 40.1608 64.9486C40.1379 64.9799 40.089 64.9757 40.0723 64.9403L39.5655 63.8694C39.5592 63.8569 39.5686 63.8423 39.5821 63.8423C39.9037 63.8298 40.2284 63.7913 40.5563 63.7278C40.5854 63.7216 40.6062 63.732 40.6177 63.7591C40.6354 63.7976 40.6354 63.835 40.6197 63.8725C40.4792 64.2055 40.346 64.5292 40.2201 64.8446Z" fill="#E8E6E7"/>
<path d="M31.2358 65.3138C31.2004 65.32 31.1817 65.3606 31.2014 65.3908C31.3701 65.6614 31.5709 65.9049 31.8041 66.1204C31.8176 66.1329 31.8186 66.1464 31.8072 66.1599L31.7905 66.1807C31.7874 66.1839 31.7843 66.1839 31.7812 66.1818C31.2951 65.8435 30.8049 65.5938 30.3116 65.4345C30.2762 65.4231 30.2585 65.3991 30.2575 65.3617L30.2471 64.7289C30.2471 64.68 30.296 64.6467 30.3407 64.6664C30.5229 64.7455 30.6426 64.7018 30.6998 64.5353C30.7633 64.3532 30.8247 64.1679 30.8861 63.9795C30.908 63.9119 30.9256 63.9129 30.9381 63.9837C30.9725 64.1856 31.0068 64.3854 31.0412 64.5842C31.1109 64.9953 31.3846 65.0879 31.6635 65.3003C31.7156 65.3408 31.7104 65.3523 31.6469 65.3367C31.5022 65.3003 31.3659 65.2919 31.2358 65.3138Z" fill="#E8E6E7"/>
<path d="M36.8623 65.596L35.9142 65.3213C35.8778 65.3108 35.8674 65.263 35.8965 65.238L36.7073 64.5365C36.7968 64.4585 36.8457 64.4793 36.853 64.5979L36.9144 65.5544C36.9175 65.5929 36.8998 65.6075 36.8623 65.596Z" fill="#52A7E7"/>
<path d="M34.2133 82.7651L43.8096 66.1437H24.6169L34.2133 82.7651Z" fill="#0A182E"/>
</svg>
